<?xml version="1.0" encoding="UTF-8"?>
<svg id="Capa_2" data-name="Capa 2" xmlns="http://www.w3.org/2000/svg" viewBox="0 0 254.87 149.28">
  <defs>
    <style>
      .cls-1 {
        fill: #fff;
      }

      .cls-2 {
        fill: #f90;
      }
    </style>
  </defs>
  <g id="Capa_1-2" data-name="Capa 1">
    <path class="cls-1" d="m71.83,55.35c0,3.14.34,5.68.93,7.54.68,1.86,1.53,3.9,2.71,6.1.42.68.59,1.36.59,1.95,0,.85-.51,1.7-1.61,2.54l-5.34,3.56c-.76.51-1.53.76-2.2.76-.85,0-1.7-.42-2.54-1.19-1.19-1.27-2.2-2.63-3.05-3.98-.85-1.44-1.7-3.05-2.63-5-6.61,7.8-14.92,11.7-24.92,11.7-7.12,0-12.8-2.03-16.95-6.1-4.15-4.07-6.27-9.49-6.27-16.28,0-7.21,2.54-13.05,7.71-17.46,5.17-4.41,12.04-6.61,20.77-6.61,2.88,0,5.85.25,8.99.68,3.14.42,6.36,1.1,9.75,1.86v-6.19c0-6.44-1.36-10.94-3.98-13.56-2.71-2.63-7.29-3.9-13.82-3.9-2.97,0-6.02.34-9.15,1.1-3.14.76-6.19,1.7-9.15,2.88-1.36.59-2.37.93-2.97,1.1s-1.02.25-1.36.25c-1.19,0-1.78-.85-1.78-2.63v-4.15c0-1.36.17-2.37.59-2.97.42-.59,1.19-1.19,2.37-1.78,2.97-1.53,6.53-2.8,10.68-3.81,4.15-1.1,8.56-1.61,13.22-1.61,10.09,0,17.46,2.29,22.21,6.87,4.66,4.58,7.04,11.53,7.04,20.85v27.46h.17Zm-34.42,12.88c2.8,0,5.68-.51,8.73-1.53s5.76-2.88,8.05-5.43c1.36-1.61,2.37-3.39,2.88-5.43s.85-4.49.85-7.37v-3.56c-2.46-.59-5.09-1.1-7.8-1.44s-5.34-.51-7.97-.51c-5.68,0-9.83,1.1-12.63,3.39-2.8,2.29-4.15,5.51-4.15,9.75,0,3.98,1.02,6.95,3.14,8.99,2.03,2.12,5,3.14,8.9,3.14Zm68.07,9.15c-1.53,0-2.54-.25-3.22-.85-.68-.51-1.27-1.7-1.78-3.31L80.56,7.71c-.51-1.7-.76-2.8-.76-3.39,0-1.36.68-2.12,2.03-2.12h8.31c1.61,0,2.71.25,3.31.85.68.51,1.19,1.7,1.7,3.31l14.24,56.12,13.22-56.12c.42-1.7.93-2.8,1.61-3.31s1.86-.85,3.39-.85h6.78c1.61,0,2.71.25,3.39.85.68.51,1.27,1.7,1.61,3.31l13.39,56.79,14.66-56.79c.51-1.7,1.1-2.8,1.7-3.31.68-.51,1.78-.85,3.31-.85h7.88c1.36,0,2.12.68,2.12,2.12,0,.42-.08.85-.17,1.36s-.25,1.19-.59,2.12l-20.43,65.53c-.51,1.7-1.1,2.8-1.78,3.31s-1.78.85-3.22.85h-7.29c-1.61,0-2.71-.25-3.39-.85s-1.27-1.7-1.61-3.39l-13.14-54.68-13.05,54.59c-.42,1.7-.93,2.8-1.61,3.39s-1.86.85-3.39.85h-7.29Zm108.93,2.29c-4.41,0-8.82-.51-13.05-1.53-4.24-1.02-7.54-2.12-9.75-3.39-1.36-.76-2.29-1.61-2.63-2.37s-.51-1.61-.51-2.37v-4.32c0-1.78.68-2.63,1.95-2.63.51,0,1.02.08,1.53.25.51.17,1.27.51,2.12.85,2.88,1.27,6.02,2.29,9.32,2.97,3.39.68,6.7,1.02,10.09,1.02,5.34,0,9.49-.93,12.38-2.8s4.41-4.58,4.41-8.05c0-2.37-.76-4.32-2.29-5.93-1.53-1.61-4.41-3.05-8.56-4.41l-12.29-3.81c-6.19-1.95-10.77-4.83-13.56-8.65-2.8-3.73-4.24-7.88-4.24-12.29,0-3.56.76-6.7,2.29-9.41s3.56-5.09,6.1-6.95c2.54-1.95,5.43-3.39,8.82-4.41,3.39-1.02,6.95-1.44,10.68-1.44,1.86,0,3.81.08,5.68.34,1.95.25,3.73.59,5.51.93,1.7.42,3.31.85,4.83,1.36s2.71,1.02,3.56,1.53c1.19.68,2.03,1.36,2.54,2.12.51.68.76,1.61.76,2.8v3.98c0,1.78-.68,2.71-1.95,2.71-.68,0-1.78-.34-3.22-1.02-4.83-2.2-10.26-3.31-16.28-3.31-4.83,0-8.65.76-11.27,2.37s-3.98,4.07-3.98,7.54c0,2.37.85,4.41,2.54,6.02s4.83,3.22,9.32,4.66l12.04,3.81c6.1,1.95,10.51,4.66,13.14,8.14s3.9,7.46,3.9,11.87c0,3.65-.76,6.95-2.2,9.83-1.53,2.88-3.56,5.43-6.19,7.46-2.63,2.12-5.76,3.65-9.41,4.75-3.81,1.19-7.8,1.78-12.12,1.78h0Z"/>
    <path class="cls-2" d="m230.43,117.74c-27.89,20.6-68.41,31.53-103.25,31.53-48.83,0-92.82-18.06-126.05-48.06-2.63-2.37-.25-5.59,2.88-3.73,35.94,20.85,80.28,33.48,126.14,33.48,30.94,0,64.93-6.44,96.21-19.67,4.66-2.12,8.65,3.05,4.07,6.44Zm11.61-13.22c-3.56-4.58-23.57-2.2-32.64-1.1-2.71.34-3.14-2.03-.68-3.81,15.94-11.19,42.13-7.97,45.18-4.24,3.05,3.81-.85,30.01-15.77,42.55-2.29,1.95-4.49.93-3.48-1.61,3.39-8.39,10.94-27.3,7.37-31.79Z"/>
  </g>
</svg>