<?xml version="1.0" encoding="UTF-8"?>
<svg id="Capa_2" data-name="Capa 2" xmlns="http://www.w3.org/2000/svg" xmlns:xlink="http://www.w3.org/1999/xlink" viewBox="0 0 685.87 454.61">
  <defs>
    <style>
      .cls-1 {
        fill: #9d9d9d;
      }

      .cls-2 {
        fill: #4e7b8e;
      }

      .cls-3 {
        fill: #fff;
      }

      .cls-4 {
        fill: #fdd553;
      }

      .cls-5 {
        fill: #4a7b9b;
      }

      .cls-6 {
        fill: #c7dcd3;
      }

      .cls-7 {
        fill: #e09741;
      }

      .cls-8 {
        fill: #325c80;
      }

      .cls-9 {
        fill: #ffa09c;
      }

      .cls-10 {
        fill: #ffe9da;
      }

      .cls-11 {
        fill: #ec9a6f;
      }

      .cls-12 {
        fill: #767474;
      }

      .cls-13 {
        fill: #ffe8e6;
      }

      .cls-14 {
        fill: #ffe2d5;
      }

      .cls-15 {
        fill: #e58c6c;
      }

      .cls-16 {
        fill: #0c4466;
      }

      .cls-17 {
        fill: #b96634;
      }

      .cls-18 {
        fill: #ae3350;
      }

      .cls-19 {
        fill: #a92707;
      }

      .cls-20 {
        fill: #5b8a9e;
      }

      .cls-21 {
        fill: #9ecbb4;
      }

      .cls-22 {
        fill: #9dc1c7;
      }

      .cls-23 {
        fill: #2b2c2c;
      }

      .cls-24 {
        fill: #a07334;
      }

      .cls-25 {
        fill: #2d2c2a;
      }

      .cls-26 {
        fill: #d06644;
      }

      .cls-27 {
        clip-path: url(#clippath);
      }

      .cls-28 {
        fill: #802419;
      }

      .cls-29 {
        fill: #ba7f11;
      }

      .cls-30 {
        fill: none;
      }

      .cls-31 {
        fill: #04566f;
      }

      .cls-32 {
        fill: #b3b3b3;
      }

      .cls-33 {
        fill: #629482;
      }

      .cls-34 {
        fill: #191919;
      }

      .cls-35 {
        fill: #fe7680;
      }

      .cls-36 {
        fill: #abe1e8;
      }

      .cls-37 {
        fill: #1f7b88;
      }

      .cls-38 {
        fill: #56181d;
      }

      .cls-39 {
        fill: #7b283f;
      }

      .cls-40 {
        fill: #fecba5;
      }

      .cls-41 {
        fill: #d88e4a;
      }

      .cls-42 {
        fill: #fdb44e;
      }

      .cls-43 {
        fill: #659db4;
      }

      .cls-44 {
        fill: #e7f2f3;
      }

      .cls-45 {
        fill: #1e1559;
      }

      .cls-46 {
        fill: #3e6581;
      }

      .cls-47 {
        fill: #804e48;
      }
    </style>
    <clipPath id="clippath">
      <path class="cls-30" d="m577.81,238.61s-3.53,11.49-.54,11.29c5.24-.35,36.06.67,57.84,5.96,0,0,3.52,1.24-3.12-6.35-6.64-7.59-49.14-14.12-54.18-10.91h0Z"/>
    </clipPath>
  </defs>
  <g id="OBJECTS">
    <path class="cls-45" d="m16.6,254.1c3.19-6.67,9.11-79.59,13.26-93.39,4.42-14.68,11.08-28.22,19.92-40.74,53.92-76.39,93.26-21.47,141.56-63.38,12.95-11.23,23.32-25.3,37.28-35.4,45.34-32.83,103.72-24.01,149.34,2.67,22.96,13.43,38.93,40.79,65.25,47.66,40.53,10.58,80.77-23.01,121.48-24,104.98-2.56,121.57,119.86,121.19,200-.09,18.52-2.37,37.18-7.77,54.92-3.69,12.12-9.19,23.54-16,34.21-51.34,80.54-114.06,15.47-180.03,36.77-53.41,17.24-92.56,93.97-159.6,79.35-51.75-11.29-58.79-50.74-110.9-60.7-50.76-9.7-81.84-13.7-131.09,3.03C-7.62,425.03-13.93,318,16.6,254.1h0Z"/>
    <g>
      <g>
        <g>
          <path class="cls-2" d="m594.09,292.89c-4.77-2.5-8.45-.82-11.52,4.58-4.1,7.21-9.81,25.22-5.76,27.61,4.63,2.74,12.46-3.16,17.05-11.9,4.59-8.75,5-17.79.24-20.29h0Z"/>
          <path class="cls-22" d="m589.81,291.76c-2.79.1-5.16,2.05-7.24,5.71-4.1,7.21-9.81,25.22-5.76,27.61.19.11.38.21.58.29.41-16.27,8.04-28.12,12.42-33.62h0Z"/>
          <g>
            <path class="cls-22" d="m594.29,311.13s-3.06-1.54-6.1-5.09c-.41-.48-.36-1.2.12-1.61.48-.41,1.2-.36,1.61.12,2.7,3.15,5.4,4.54,5.4,4.54.56.29.79.97.5,1.54-.29.56-.97.79-1.54.5Z"/>
            <path class="cls-22" d="m592.73,314.47s-3.06-1.54-6.1-5.09c-.41-.48-.35-1.2.12-1.61.48-.41,1.2-.36,1.61.12,2.7,3.15,5.4,4.54,5.4,4.54.56.29.78.97.5,1.54-.29.56-.97.79-1.54.5Z"/>
            <path class="cls-22" d="m591.23,317.58s-3.06-1.54-6.1-5.09c-.41-.48-.36-1.2.12-1.61.48-.41,1.2-.36,1.61.12,2.7,3.15,5.4,4.54,5.4,4.54.56.29.79.97.5,1.54s-.97.79-1.54.5Z"/>
          </g>
        </g>
        <g>
          <path class="cls-2" d="m522.76,369.5c-5.06,1.83-6.3,5.68-4.39,11.6,2.56,7.89,12,24.26,16.49,22.88,5.15-1.58,6.07-11.33,2.71-20.61-3.36-9.29-9.76-15.69-14.82-13.86h0Z"/>
          <path class="cls-22" d="m519.03,371.9c-1.81,2.13-1.97,5.19-.67,9.2,2.56,7.89,12,24.26,16.49,22.88.21-.06.41-.14.61-.23-11.73-11.28-15.33-24.9-16.44-31.85h0Z"/>
          <g>
            <path class="cls-22" d="m536.36,381.66s-3.2,1.22-7.87,1.07c-.63-.02-1.12-.55-1.11-1.18.02-.63.55-1.12,1.18-1.11,4.15.13,7-.93,7-.93.59-.22,1.25.08,1.47.67.22.59-.08,1.25-.67,1.47h0Z"/>
            <path class="cls-22" d="m537.77,385.07s-3.2,1.22-7.87,1.07c-.63-.02-1.13-.55-1.11-1.18.02-.63.55-1.12,1.18-1.11,4.15.13,7-.93,7-.93.59-.22,1.25.08,1.47.67.22.59-.08,1.25-.67,1.47h0Z"/>
            <path class="cls-22" d="m539.05,388.27s-3.2,1.22-7.87,1.07c-.63-.02-1.13-.55-1.11-1.18.02-.63.55-1.12,1.18-1.11,4.15.13,7-.93,7-.93.59-.22,1.25.08,1.47.67.22.59-.08,1.25-.67,1.47h0Z"/>
          </g>
        </g>
        <g>
          <path class="cls-32" d="m582.37,232.39c-3.48,1.34-7.4,49.94-61.49,138.16,0,0,11.25,12.53,16.79,6.93,0,0,61.58-95.9,64.01-99.75,2.72-4.31,8.45-4.03,12.24-1.01,2.19,1.74,18.76,17.75,8.33,18.25-10.43.5-20.48-1.35-26.88-1.53-1.19-.03-6.05,11.05-1.2,14.76,4.86,3.71,53.35,10.15,58.87,1.85,7.65-11.5-16.98-53.5-23.07-60.44-6.09-6.93-44.12-18.57-47.6-17.23Z"/>
          <path class="cls-1" d="m574.32,257.71c5.1-16.15,6.61-24.77,8.04-25.32,3.48-1.34,41.5,10.3,47.6,17.23,1.54,1.75,4.25,5.72,7.33,10.88-10.22-3.35-20.78-5.36-31.55-5.88-9.18-.44-18.5.39-27.5,2.24-1.31.27-2.62.54-3.92.85h0Z"/>
          <path class="cls-12" d="m607.78,238.8c.36.13.72.25,1.07.38.7,6.83,1.38,15.93,1.15,24.01-.02.88-.06,1.75-.11,2.61.04,0,.09,0,.14,0,1.43.22,2.51-.36,3.31-1.48.88-1.24,1.45-3.1,1.79-5.32.78-4.98.46-11.71-.11-17.48.36.14.72.29,1.07.43.54,5.74.83,12.31.06,17.21-.38,2.4-1.02,4.41-1.97,5.76-1.04,1.46-2.45,2.19-4.31,1.9-.01,0-.03,0-.04,0-.19,2.83-.53,5.46-1.05,7.72-.34-.04-.69-.06-1.03-.06.74-3.17,1.11-7.1,1.22-11.31.23-8.23-.48-17.52-1.2-24.36Z"/>
          <path class="cls-1" d="m611.57,312.36c-8.67-1.22-15.71-2.85-17.4-4.15-4.85-3.71,0-14.8,1.2-14.76,6.18.17,15.74,1.9,25.76,1.57-.25.24-.49.49-.73.75-2.34,2.48-4.39,5.3-6.04,8.28-1.56,2.81-2.46,5.48-2.78,8.32h0Z"/>
        </g>
      </g>
      <g>
        <path class="cls-40" d="m657.25,199.06c.2-2.26,9.85-22.45,10.16-29.23l9.42,3.89c-1.72,13.13-4.99,24.96-8.91,36.26,0,0-10.86-8.66-10.66-10.92Z"/>
        <path class="cls-15" d="m661.06,189.18c1.47,3.44,5.11,8.1,10.67,8.81-1.17,4.09-2.45,8.07-3.81,12,0,0-10.86-8.66-10.66-10.92.08-.94,1.8-4.99,3.81-9.89Z"/>
        <path class="cls-40" d="m677.01,174.23c-2.13,1.45-5.99,2.67-8.31,1.11-2.99-2.01-7.85-11.12-9.63-13.15-.55-.63-1.99-2.46-1.64-3.38.8-2.07,7.34,3.7,7.37,3.67.24-.23.73-10.84,2.68-11.58,2.24-.85,2.06,7.74,2.39,7.72.36-.02,2.39-8.15,5.2-7.66,1.92.33-.15,8.7.06,8.82.08.05,5.26-6,6.81-4.63,1.63,1.44-2.63,6.08-2.89,7.88-.02.16,5.68-3.01,6.26-1.39.35.98-3.33,4.34-3.85,5.01-2.08,2.68-2.33,6.14-4.46,7.59h0Z"/>
      </g>
      <g>
        <path class="cls-40" d="m541,137.31s-5.46-28.49-5.05-40.82l-11.25,1.91s-8.08,47.09,7.84,48.86c13.33,1.48,8.02-12.13,8.47-9.95h0Z"/>
        <path class="cls-15" d="m522.78,127.54c.71,1.41,4.52,7.31,17.32,4.82.48,2.71.82,4.53.89,4.89,0,.02,0,.04.01.07v-.07c-.33-1.81,4.72,11.48-8.47,10.02-6.77-.75-9.2-9.69-9.75-19.72h0Z"/>
        <g>
          <path class="cls-40" d="m534.22,99.23c.97-.57,2.33-1.91,4.58-5.43,1.56-2.44,1.48-4.11,1.24-5.47-.53-3-3.73-1.96-3.93-2.31-.2-.32-.18-6.57-5.35-6.22-1.99.14-1.99,1.78-1.99,1.78,0,0-1.31-1.62-3.43-1.06-2.06.54-2.23,3.04-2.23,3.04,0,0-1.45-.74-2.5,1.03-.78,1.32-.23,2.62-.23,2.62,0,0-1.07-.95-2.19.85-1.13,1.82-.91,2.49.46,4.92,1.26,2.23,4.38,6.19,6.54,7.08,3.76,1.56,6.35.72,9.03-.85Z"/>
          <path class="cls-26" d="m531.17,87.04c1.54-.67,3.24-.99,4.89-1.29.02.15.04.24.06.28.02.03.06.05.13.06-.52.11-1.14.25-1.42.32-.51.13-1.01.27-1.51.44-.42.14-.84.28-1.25.44-1.27.51-2.75,1.1-3.08,2.58-.12.56-.03,1.03.44,1.43.33.28.82.46,1.24.55,1.1.24,2.21.34,3.33.4.39.02.78.04,1.17.01.14,0-1.07.23-1.66.25-.69.02-1.69.05-2.63-.1-.09.07-.17.13-.19.15-.72.54-1.28,1.32-1.62,2.15-.11.26-.37.96-.35.79.11-.81.44-2.12.92-2.79.11-.15.24-.34.4-.48-.79-.25-1.44-.69-1.65-1.47-.16.03-.34.02-.45,0-.12-.01-.23-.04-.35-.08-.04.09-.13.19-.19.31-.07.14-.15.27-.23.39-.5.72-1.46.89-2.29.7-.04.38-.2.8-.33,1.15-.16.41-.35.84-.64,1.17-.49.57-1.37.48-1.99.21-1.3-.54-2.27-1.54-3-2.72,0-.01-.02-.02-.03-.03h.02s0,.02.01.03c.21.21.41.43.62.63.78.76,2.01,1.82,3.2,1.7.85-.08,1.42-1.1,1.62-1.83.04-.15.04-.32.05-.48-.12-.05-.24-.11-.35-.18-1.79-1.13-3.31-2.89-4.28-4.78.3.02.52.16.6.22.17.3.39.6.54.8,1.02,1.36,2.28,3.1,4.02,3.51.45.1,1.05.16,1.47-.07.29-.16.49-.45.67-.72.02-.03.06-.12.1-.21-.46-.25-.88-.63-1.2-.94-1-.99-1.64-2.36-2.27-3.59-.41-.8-.81-1.63-.99-2.52.25.04.41.12.41.12,0,0,0-.03,0-.07.01.04.03.09.04.13.22.66.53,1.28.85,1.9.66,1.3,1.38,2.52,2.32,3.64.37.44.87,1.04,1.46,1.18.17.04.35.04.53,0,0-.04,0-.08,0-.12-.03-1.35.86-2.15,1.96-2.76.08-.04.15-.08.23-.12-.05-.42-.16-.81-.25-1.13-.3-1.16-.62-2.36-1.04-3.48-.15-.41-.29-.83-.44-1.24.01-.14.06-.43.23-.74.42.81.72,1.7,1,2.56.21.62.38,1.25.55,1.88.14.5.3.99.48,1.48.04.1.08.23.12.36h0Z"/>
        </g>
      </g>
      <g>
        <path class="cls-22" d="m577.81,238.61s-3.53,11.49-.54,11.29c5.24-.35,36.06.67,57.84,5.96,0,0,3.52,1.24-3.12-6.35-6.64-7.59-49.14-14.12-54.18-10.91h0Z"/>
        <g class="cls-27">
          <g>
            <path class="cls-20" d="m581.82,238.86l-.28,13.97c0,.28.22.52.5.52.28,0,.52-.22.52-.5l.28-13.98c0-.28-.22-.52-.5-.52-.28,0-.52.22-.52.5Z"/>
            <path class="cls-20" d="m590.61,240.33l-.46,13.97c0,.28.21.52.5.53.28,0,.52-.21.53-.5l.46-13.97c0-.28-.21-.52-.5-.53-.28,0-.52.21-.53.5h0Z"/>
            <path class="cls-20" d="m599.96,240.33l-.74,13.96c-.02.28.2.53.49.54.28.02.53-.2.54-.49l.74-13.96c.02-.28-.2-.53-.49-.54-.28-.02-.53.2-.54.49Z"/>
            <path class="cls-20" d="m607.48,241.84l-.49,13.97c0,.28.21.52.5.53.28,0,.52-.21.53-.5l.49-13.97c0-.28-.21-.52-.5-.53-.28,0-.52.21-.53.5h0Z"/>
            <path class="cls-20" d="m615.65,241.95l-.65,13.96c-.01.28.21.52.49.54.28.01.52-.21.54-.49l.65-13.96c.01-.28-.21-.52-.49-.54-.28-.01-.52.21-.54.49Z"/>
            <path class="cls-20" d="m623.78,243.53l.6,13.96c.01.28.25.5.54.49.28-.01.5-.25.49-.54l-.6-13.96c-.01-.28-.25-.5-.54-.49-.28.01-.5.25-.49.54h0Z"/>
            <path class="cls-20" d="m630.8,246.81l.54,13.97c.01.28.25.5.53.49.28-.01.51-.25.49-.53l-.54-13.97c-.01-.28-.25-.51-.53-.49-.28.01-.51.25-.49.53Z"/>
          </g>
        </g>
        <g>
          <path class="cls-2" d="m540.96,131.97s33.19,25.37,48.4,30.75c14.65,5.18,36.12,13.19,48.75,26.12,5.89,6.03,12.11,13.33,13.23,12.07,1.72-1.94,2.13-3.79,3.53-4.32,3.08-1.18,15.02,7.66,15.54,13.82.48,5.73-3.78,22.6-18.42,16.15-16.34-7.2-20.67-11.94-20.67-11.94,0,0,4.8,22.85,3.33,31.64-.49,2.96-.97,4.77-2.34,4.03-7.89-4.29-47.41-10.85-55.39-8.38,0,0-6.86-4.79-1.72-49.14,0,0-12.39-11.41-24.68-21.66-9.58-7.99-16.99-19.02-20.06-20.19-3.06-1.17,4.42-14.62,10.5-18.95h0Z"/>
          <path class="cls-22" d="m523.83,137.13s12.59.91,16.07-5.77c0,0,4.6-.3,7.31,3.91,3.62,5.61-13.68,18.87-17.59,15.3-6.55-5.99-7.8-11.54-5.8-13.44h0Z"/>
          <path class="cls-22" d="m659.47,192.2s-5.89,3.21-4.35,7.94c1.54,4.73,13,12.45,15.08,9.34,2.08-3.11,1.26-8.37.78-9.31-.47-.93-6.83-.73-11.52-7.98h0Z"/>
          <g>
            <path class="cls-46" d="m650.96,201.89s-1.39,8.66,2.55,15c-1.48-4.93-2.32-9.93-2.55-15Z"/>
            <path class="cls-46" d="m631.32,214.62c-.29-1.16-4.38-17.72-5.65-21.2-1.32-3.61,6.07,11.35,9.53,15.4,3.47,4.05,17.05,18.32,28.2,17.68-2.78,1.77-6.52,2.22-11.41.06-16.24-7.15-20.61-11.87-20.67-11.93Z"/>
            <path class="cls-46" d="m581.41,217.95s13.73,21.16,42.13,22.44c0,0-19.46-2.6-42.13-22.44Z"/>
            <path class="cls-46" d="m576.7,191.24s5.46-4.95,8.15-11.39l-8.15,11.39Z"/>
            <path class="cls-46" d="m580.78,170.59s.85,12.35-4.08,18.51c0,0,3.99-12.16,4.08-18.51Z"/>
          </g>
        </g>
      </g>
      <g>
        <path class="cls-22" d="m591.61,163.69s-15.86,2.64,17.22,26.24c0,0,12.02-12.81,3.23-17.51-12.37-6.62-20.45-8.72-20.45-8.72Z"/>
        <path class="cls-44" d="m593.12,164.79s-11.69.4,15.25,21.68c0,0,8.94-9.51,1.84-14.07-9.95-6.4-17.09-7.61-17.09-7.61Z"/>
        <path class="cls-40" d="m591.57,154.34s1.14,6.35-.15,11.25c-.47,1.8,9.8,12.27,14.85,13.81,3.03.92,4.58-2.16,4.69-6.29,0,0-5.45-6.61-4.16-14.2.85-5.03-15.23-4.56-15.23-4.56h0Z"/>
        <path class="cls-15" d="m592.03,159.69c-.04-2.97-.46-5.35-.46-5.35,0,0,16.08-.46,15.23,4.56-.51,3.03.05,5.91.91,8.27-5.58-.52-12.13-4.84-15.67-7.48Z"/>
      </g>
      <g>
        <path class="cls-15" d="m617.55,136.5c2.86.36,4.87,3.21,4.47,6.36-.39,3.16-3.04,5.43-5.9,5.07-2.86-.36-4.87-3.21-4.47-6.36.39-3.16,3.04-5.43,5.9-5.07Z"/>
        <path class="cls-7" d="m616.5,123.32s3.34,10.72-.12,17.81c-3.46,7.09-9.08-8.51-9.08-8.51l-3.96-7.01,13.16-2.29h0Z"/>
        <g>
          <path class="cls-40" d="m593.47,117.23c10.11-2.49,21.07,6.34,23.3,18.32,1.97,10.59-1.62,22.05-7.84,24.21-9.83,3.42-23.25-2.25-27.48-13.78-4.19-11.44,1.91-26.26,12.02-28.75Z"/>
          <path class="cls-15" d="m581.19,145.23c-3.67-11.33,2.39-25.56,12.27-28,8.48-2.09,17.55,3.78,21.58,12.8-.68.34-.67-.53-1.23-.43-4.9.85-11.76-3.04-15.21-.61-4.87,3.43-11.34,2.14-11.34,2.14-.25,3.63-5.28,14.43-5.28,14.43,0,0-.29-.1-.79-.33h0Z"/>
        </g>
        <g>
          <path class="cls-42" d="m582.49,149.15s3.2-13.35,3.17-20.06c0,0,6.92,1.14,10.41-.6,5.02-2.51,8.92-.73,10.42-.49,4.42.72,10.64,1.52,15.33-7.4,3.96-7.54-2.32-12.63-11.6-10.08-4.94,1.36-8.37-.22-12.31-1.62-11.84-4.21-15.35,2.7-16.45,8.88,0,0-16.59,10.5,1.04,31.37Z"/>
          <path class="cls-7" d="m577.87,121.19c3.28,2.7,9.74,6.91,16.64,5.22,9.91-2.42,12.19-.72,14.9.03,1.49.41,3.52,1.11,5.98.96-3.14,1.46-6.32,1.01-8.89.59-1.5-.24-5.4-2.02-10.42.49-3.49,1.74-10.41.6-10.41.6.03,6.71-3.17,20.06-3.17,20.06-11.82-14-8.25-23.33-4.62-27.95h0Z"/>
        </g>
        <path class="cls-40" d="m578.63,142.62c2.37-1.65,5.76-.87,7.58,1.74,1.82,2.61,1.37,6.07-1,7.71-2.37,1.65-5.76.87-7.58-1.74-1.82-2.61-1.37-6.07,1-7.72Z"/>
        <g>
          <path class="cls-28" d="m595.94,136.73c-.59.09-.96.9-.83,1.81.13.91.72,1.58,1.31,1.49s.96-.9.83-1.81c-.13-.91-.72-1.58-1.31-1.49h0Z"/>
          <path class="cls-28" d="m610.15,135.66c-.6.04-1.04.81-.98,1.73.06.92.59,1.64,1.18,1.6.6-.04,1.04-.81.98-1.73-.06-.92-.59-1.64-1.18-1.6Z"/>
          <path class="cls-28" d="m599.6,133.95s-3.78-6.49-8.19.3c0,0,4.29-2.36,8.19-.3Z"/>
          <path class="cls-28" d="m614.38,132.81s-3.52-5.9-7.36.32c0,0,4.15-2.28,7.36-.32Z"/>
          <path class="cls-28" d="m606.08,136.17s-.68,4.89.05,5.64c1.21,1.23.92,1.64-.04,2.1,0,0,4.81-.92,2.45-2.64-2.12-1.55-2.46-5.11-2.46-5.11h0Z"/>
          <g>
            <path class="cls-28" d="m607.6,146.48c-1.34-.27-6.61-1.48-8.42-1.7-1.83-.22-2,7.03,2.63,8.21,4.32,1.1,7.56-6.15,5.79-6.51Z"/>
            <path class="cls-3" d="m608.06,146.97c-.07-.27-.21-.45-.45-.49-1.34-.27-6.61-1.48-8.42-1.7-.35-.04-.64.19-.84.59.55,1.03,1.99,1.69,5.25,2.4,2.53.55,3.82-.1,4.46-.8Z"/>
          </g>
        </g>
      </g>
    </g>
    <g>
      <g>
        <g>
          <path class="cls-11" d="m398.74,349.43s17.09,54.89,27.25,47.47c10.16-7.42,25.28-56.73,25.28-56.73l-9.98-2.68-14.43,27.49-4.03-23.56-24.08,7.99h0Z"/>
          <path class="cls-26" d="m427.99,362.83l13.3-25.33,9.98,2.68s-9.94,32.41-19.11,48.63c1.09-11.12-2.7-22.21-4.16-25.98Z"/>
          <path class="cls-26" d="m421.76,341.79c.42.44.89.97,1.38,1.57l2.93,17.13c-5.35,1.48-17.92-1.94-25.05-4.14-1.44-4.17-2.29-6.91-2.29-6.91l23.03-7.64h0Z"/>
        </g>
        <g>
          <path class="cls-11" d="m432.52,353.56s27.06,41.49,36.85,32.27c9.79-9.22,12.31-58.34,12.31-58.34l-8.34-4.77-7.79,30.88-12.59-16.68-20.44,16.64h0Z"/>
          <path class="cls-26" d="m459.8,345.98c-5.83,5.06-17.85,10.43-23.65,12.87-2.25-3.17-3.63-5.29-3.63-5.29l20.44-16.64,6.84,9.06Z"/>
          <g>
            <path class="cls-11" d="m471.54,320.05c1.48-5.03,3.35-6.7,7.25-5.16,7.93,3.12,30.08,20.1,25.92,22.74-4.7,2.98-12.51.88-19.48-2.34-9.21-4.27-15.31-9.79-13.7-15.24Z"/>
            <path class="cls-11" d="m472.13,318.28c-.21.53-.41,1.13-.6,1.77-1.61,5.45,4.49,10.97,13.7,15.24,4.38,2.03,9.1,3.61,13.17,3.76-1.81-7.72-19.36-17.29-26.27-20.77h0Z"/>
            <path class="cls-33" d="m498.4,339.05c2.39.1,4.56-.31,6.31-1.42,4.16-2.64-17.99-19.61-25.92-22.74-3.4-1.34-5.26-.25-6.66,3.38,6.91,3.48,24.48,13.05,26.27,20.77h0Z"/>
          </g>
        </g>
        <g>
          <path class="cls-42" d="m394.96,305.47s-7.45,37.41-1.17,45.35c3.15,3.99,27.5,10.99,33.78,5.9l.35-4.59,5.28,4.86s27.89-8.59,28.13-20.39c.18-8.87-17.22-17.1-20.43-24.09-3.21-6.99-45.94-7.05-45.94-7.05h0Z"/>
          <path class="cls-41" d="m393.78,312.11c.65-4.02,1.18-6.65,1.18-6.65,0,0,42.73.05,45.94,7.05.82,1.78,2.55,3.64,4.69,5.57-13.87,9.78-39.44-.15-51.8-5.97h0Z"/>
          <path class="cls-17" d="m414.89,336.53c.76,3.44,1.96,6.68,3.8,9.34.16.23.1.55-.13.72-.23.16-.55.1-.72-.13-3.49-5.05-4.79-12.13-5.08-18.82-.43-9.95,1.37-19.02,1.37-19.02.06-.28.33-.46.6-.4.28.06.46.33.4.6,0,0-1.77,8.95-1.35,18.77.11,2.63.38,5.33.89,7.93,1.31-.14,2.74-.98,3.68-4.08.92-3,2.66-21.49,2.66-21.49.03-.28.28-.49.56-.46.28.03.49.28.46.56,0,0-1.77,18.67-2.7,21.7-.62,2.02-1.44,3.2-2.3,3.89-.71.57-1.45.82-2.16.9h0Z"/>
          <path class="cls-41" d="m427.08,357.07c-.9-2.74-1.8-3.93-5.33-6.78-2.89-2.33-14.32-7.61-9.09-6.42,5.71,1.3,9.92,1.91,10.47,2.23.56.32,4.84,6.05,4.84,6.05v.03s-.05-.05-.05-.05l-.35,4.59c-.15.12-.32.24-.49.35h0Z"/>
        </g>
      </g>
      <g>
        <g>
          <path class="cls-21" d="m435.97,244.34s-16.63-43.58,2.08-83.53c0,0,6.29-8.32,1.29-13.25-3.73-3.68-14.79-8.17-20.19.56-7.19,11.63-19.14,47.07-16.17,97.63,0,0-24.2,52.86-8.48,63.04,9.53,6.17,40.57,12.8,45.12,6.83,0,0,10.11,6.19,20.79-10.52,11.37-17.81,13.17-17.86,15.18-21.86,2.01-4-4.54-13.92-10.02-14.81-4.55-.74-11.49,9.02-11.49,9.02,0,0,6.81-15.6.5-22.35-10.1-10.8-18.61-10.75-18.61-10.75h0Z"/>
          <path class="cls-33" d="m420.72,229.29s-12.38,7.44-15.87,14.23c0,0,2.14-9.06,15.87-14.23Z"/>
          <path class="cls-6" d="m469.13,268.83s-5.32.62-5.14,3.01c.34,4.51,7.65,11.77,9.2,10.83,2.91-1.75,3.93-5.46,3.93-5.46l-7.98-8.38h0Z"/>
          <path class="cls-6" d="m427.95,140.82s-4.17,3.37-2.74,5.29c2.7,3.63,12.83,5.9,13.56,4.24.73-1.66.78-5.12.78-5.12l-11.6-4.41Z"/>
          <path class="cls-33" d="m439.38,315.9c-.1-.01-.19-.03-.2-.03-20.48-7.17-1.06-43.37-1.06-43.37,0,0-4.89,11.34-6.46,25.94-1.05,9.78,5.88,15.55,7.96,17.18-.07.1-.16.19-.24.28h0Z"/>
          <path class="cls-33" d="m454.65,276.03c-.28.75-.49,1.25-.56,1.41-1.84,2.08-7.97,9.09-8.74,10.93-.91,2.16-3.01-.2-1.82,6.64,0,0-4.39-5.05-.03-7.15,0,0,6.76-8.17,11.15-11.83h0Z"/>
        </g>
        <path class="cls-11" d="m429.52,144.53c1.88,1.77,5.5,3.58,8.03,2.4,3.27-1.51,9.5-9.75,11.57-11.48.64-.54,2.35-2.12,2.15-3.09-.47-2.17-7.83,2.51-7.86,2.47-.2-.27.98-10.83-.83-11.86-2.08-1.19-3.25,7.32-3.57,7.25-.36-.08-1.08-8.42-3.93-8.38-1.95.02-1.22,8.62-1.45,8.71-.09.03-4.25-6.75-6-5.64-1.84,1.17,1.64,6.42,1.62,8.23,0,.16-5.14-3.87-5.97-2.35-.49.91,2.61,4.81,3.02,5.55,1.63,2.98,1.34,6.43,3.22,8.19Z"/>
        <g>
          <path class="cls-11" d="m469.38,270.44c-.27-1.1-.25-3,.71-7.07.66-2.82,1.91-3.92,3.06-4.7,2.52-1.71,4,1.31,4.4,1.22.37-.09,4.84-4.45,8.18-.5,1.29,1.52.11,2.67.11,2.67,0,0,2.08-.19,3.15,1.72,1.04,1.86-.63,3.72-.63,3.72,0,0,1.54.52,1.01,2.51-.4,1.48-1.72,1.99-1.72,1.99,0,0,1.43.11.91,2.17-.52,2.07-1.15,2.38-3.85,3.09-2.48.65-7.49,1.17-9.64.25-3.74-1.61-4.94-4.05-5.68-7.07h0Z"/>
          <path class="cls-26" d="m480.26,264.14c-.6-1.57-1.55-3.01-2.48-4.41-.12.09-.2.14-.24.15-.04,0-.08,0-.14-.05.28.45.62.99.76,1.24.26.46.51.92.73,1.39.19.4.39.8.55,1.21.52,1.27,1.13,2.74.29,4-.32.48-.72.74-1.33.69-.44-.04-.91-.27-1.26-.5-.94-.62-1.78-1.35-2.6-2.11-.28-.26-.57-.53-.82-.83-.09-.11.58.93.97,1.36.47.51,1.14,1.25,1.9,1.82.02.11.03.21.03.24.11.89-.06,1.83-.41,2.66-.11.26-.43.93-.32.8.51-.64,1.22-1.79,1.36-2.6.03-.18.07-.41.07-.62.73.4,1.5.55,2.2.15.09.13.22.25.31.33.09.07.19.14.3.2-.03.09-.05.23-.1.35-.05.14-.09.29-.12.44-.17.85.38,1.66,1.09,2.13-.24.3-.44.7-.6,1.04-.19.4-.36.83-.39,1.28-.07.75.61,1.31,1.24,1.58,1.29.55,2.69.55,4.04.26.01,0,.03,0,.04,0h-.02s-.02,0-.03,0c-.29,0-.59,0-.88,0-1.09-.03-2.7-.17-3.45-1.11-.53-.67-.2-1.78.18-2.44.08-.14.21-.25.31-.37.12.05.25.09.37.12,2.06.49,4.38.37,6.41-.27-.23-.2-.48-.26-.58-.28-.34.09-.7.14-.95.17-1.69.21-3.81.53-5.32-.44-.39-.25-.84-.64-.97-1.1-.09-.32-.02-.67.04-.98,0-.03.05-.13.08-.22.5.15,1.06.2,1.51.2,1.41.03,2.84-.47,4.16-.87.86-.26,1.73-.55,2.5-1.05-.2-.15-.37-.2-.37-.2,0,0,.02-.02.05-.05-.04.02-.08.04-.12.06-.63.31-1.29.51-1.95.71-1.39.43-2.77.77-4.23.87-.57.04-1.35.1-1.86-.22-.15-.09-.27-.23-.37-.38.03-.02.06-.05.09-.08.99-.92.94-2.12.61-3.33-.02-.09-.05-.17-.07-.25.33-.25.7-.45.98-.61,1.04-.59,2.12-1.2,3.22-1.68.4-.18.8-.37,1.19-.55.09-.1.27-.34.37-.68-.87.27-1.72.67-2.53,1.06-.59.29-1.16.6-1.73.91-.45.25-.92.47-1.4.68-.1.04-.22.1-.34.16h0Z"/>
        </g>
      </g>
      <g>
        <g>
          <g>
            <path class="cls-26" d="m430.9,228.24c2.36,9.78,5.07,16.1,5.07,16.1,0,0,4.7-.03,11.27,4.4-1.83,1.42-4.11,3.24-6.82,5.47-1.98,1.63-7.97,7.63-17.41,3.64-9.01-3.81-7.85-14.89,3.69-26.95,1.35-1.41,2.76-2.25,4.2-2.66h0Z"/>
            <path class="cls-11" d="m433.2,236.57c1.53,4.88,2.77,7.77,2.77,7.77,0,0,4.7-.03,11.27,4.4-1.83,1.42-4.11,3.24-6.82,5.47-1.69,1.39-6.29,5.96-13.47,4.8-11.07-10.95-.71-19,6.26-22.43h0Z"/>
          </g>
          <g>
            <path class="cls-11" d="m442.63,240.19s-4.92,2.76-3.49,6.37c1.69,4.26-17.28,5.38-15.43-.72.69-2.27,3.24-3.96,5.77-10.82,2.32-6.28,13.14,5.17,13.14,5.17Z"/>
            <path class="cls-26" d="m426.87,240.61c.82-1.39,1.71-3.16,2.61-5.59,2.32-6.28,13.14,5.17,13.14,5.17,0,0-3.26,1.83-3.7,4.46-5.32-.03-9.87-2.57-12.05-4.04h0Z"/>
          </g>
        </g>
        <g>
          <path class="cls-34" d="m424.65,220.09s-1.2,2.99-4.84,5.37c-2.53,1.65-4.79,3.64-5.62,5.48-.83,1.84,5.27-.26,8.01,2.31,2.74,2.57,6.9,3.35,9.35,2.21,2.45-1.14,2.63-7.2,2.63-7.2l-9.53-8.17Z"/>
          <path class="cls-26" d="m430.05,213.9c2.6,1.73,3.25,5.32,1.46,8-1.79,2.68-5.35,3.45-7.95,1.72-2.6-1.73-3.25-5.32-1.46-8,1.79-2.68,5.35-3.45,7.95-1.72Z"/>
          <path class="cls-11" d="m460.44,199.56c10.01,6.17,10.93,21.55,3.71,33.27-7.22,11.72-25.37,13.64-34.15,6.8-6.84-5.32-9.43-15.25-2.21-26.97,7.22-11.72,22.65-19.27,32.66-13.1Z"/>
          <path class="cls-26" d="m428.9,210.98c7.6-10.74,22.03-17.28,31.55-11.42,10.01,6.17,10.93,21.55,3.71,33.27-3.86,6.26-10.83,9.72-17.84,10.55,1.77-3.19,8.57-15.59,8.59-18.35,0,0-9.53-13.84-7.84-20.49,0,0-11.19,1.27-18.16,6.44h0Z"/>
          <g>
            <path class="cls-25" d="m448,202.08s1.76,13.6,8.82,21.44c0,0-6.7,17.24-16.53,22.45,0,0,9.08,2.12,12.22,1.15,4.55-1.4,4.81,2.14,7.88,2.24,3.75.13,29.13-35.15,2.66-50.81-27.03-15.99-32.97-.89-35.36,5.92-2.03,5.78-.28,9.03-.28,9.03,0,0,8-12.13,20.59-11.42Z"/>
            <path class="cls-34" d="m474.95,219.63c-.43,14.79-12.11,29.81-14.56,29.73-3.07-.1-3.32-3.64-7.88-2.24-3.14.97-12.22-1.15-12.22-1.15,9.83-5.2,16.53-22.45,16.53-22.45-1.78-1.98-3.23-4.32-4.39-6.72,9.19,2.14,17.51,2.71,22.51,2.83Zm-47.79-13.33c1.39.94,2.81,1.81,4.26,2.62-2.58,2.44-4,4.59-4,4.59,0,0-1.38-2.57-.26-7.2Z"/>
          </g>
          <g>
            <path class="cls-38" d="m444.1,217.07s8.12-4.4,5.5,4.92c0,0,.92-6-5.5-4.92Z"/>
            <path class="cls-38" d="m430.09,212.3s7.14-7.54,7.03,2.27c0,0-1.74-5.96-7.03-2.27Z"/>
            <path class="cls-38" d="m436.28,219.27c.03.65-.73,2.67-1.85,3.21-1.02.49-1.13,1.87-.88,2.66,0,0-1.97-2.72-.36-3.22,2.02-.63,3.08-3.03,3.09-2.65h0Z"/>
            <g>
              <path class="cls-38" d="m432.95,227.61c1.37.21,6.8.88,8.59,1.3,1.81.43-.54,7.38-5.34,6.9-4.49-.45-5.05-8.48-3.25-8.21Z"/>
              <path class="cls-3" d="m432.35,227.92c.15-.23.36-.35.6-.31,1.37.21,6.8.88,8.59,1.3.35.08.54.4.59.86-.88.79-2.47.92-5.82.46-2.6-.36-3.59-1.42-3.96-2.31Z"/>
            </g>
            <path class="cls-38" d="m434.54,217.6s-1.94-5.47-5.35-.53c1.61-.97,3.36-1,5.35.53Z"/>
            <path class="cls-38" d="m446.4,225.48s1.43-6.47-5.26-3.95c2.29.11,4.14,1.21,5.26,3.95Z"/>
          </g>
        </g>
      </g>
    </g>
    <g>
      <g>
        <path class="cls-23" d="m265.07,66.83c-5.57,3.95-13.73,16.22-11.26,43.58,2.76,30.57-2.27,25.33-8.07,32.3-5.8,6.96-8.87,14.27,1.02,22.04,9.89,7.77,9.77,10.71,9.45,15-.33,4.29,3.5,10.99,16.41,7.27,16.7-4.81,23.37,6.65,30.13,3.11,6.76-3.54,41.22-21.71,42.62-32.73,1.4-11.02-3.61-21.25-11.93-21.3-8.32-.05-7.8-9.77-6.06-15.11,1.73-5.34-10.73-12.3-14.39-16.02-3.66-3.73-6-12.77-5.01-16.15.99-3.39-6.42-13.74-9.55-15.08-3.14-1.34-27.24-11.23-33.34-6.9Z"/>
        <path class="cls-34" d="m254.23,88.87c11.15,9.91,35.91,27.41,69.58,24.94,2.54,2.43,4.28,4.94,3.56,7.17-1.73,5.34-2.26,15.06,6.06,15.11,8.32.05,13.33,10.28,11.93,21.3-1.4,11.02-35.86,29.19-42.62,32.73-6.76,3.54-13.42-7.93-30.13-3.11-12.9,3.72-16.73-2.97-16.41-7.27.33-4.29.44-7.23-9.45-15-9.89-7.77-6.82-15.08-1.02-22.04,5.8-6.96,10.83-1.73,8.07-32.3-.78-8.6-.5-15.71.41-21.54Z"/>
      </g>
      <path class="cls-24" d="m287.5,190.65s52.58-7.97,60.8-17.34c0,0-.32-7.9-9.17-9.96-8.85-2.07-40.97,4.2-45.56,13.13-4.6,8.93-6.07,14.17-6.07,14.17h0Z"/>
      <g>
        <g>
          <path class="cls-11" d="m283.29,165.76c-.74,1.27,2.56,7.25,3,8.38,2.35,6.04,10.16,14.51,5.54,19.36-4.91,5.15-8.55,6.36-15.1,15.05-6.72,8.92-20.85,31.4-24.21,32.14-1.49.33,4.12-30.17,3.86-32.11-.14-1.01-11.96-3.09-12.29-2.69-2.44,2.92-19.94,66.23-6.57,71.56,16.78,6.69,77.24-53.85,80.55-52.93,6.21,1.72,29.4,32.89,23.67,34.15-2.61.57-46.11,8.47-46.65,9.62-.74,1.6,1.42,10.24,2.33,11.94.54,1,60.42,6.3,73.9-5.97,5.6-5.1,1.48-30.97-10.04-54.03-7.99-15.99-18.6-29.79-22.52-47.46-.92-4.12-3.92-16.51-5.39-17.02-6.02-2.06-10.81,1.87-13.64,2.6-11.28,2.91-36.44,7.4-36.44,7.4h0Z"/>
          <g>
            <path class="cls-31" d="m292.83,192c10.51-2.82,34.31-8.28,50.72-4.88,4.99,11.39,12.03,21.7,17.74,33.12,11.52,23.06,15.64,48.93,10.04,54.03-8.8,8.01-37.37,8.53-56.3,7.65-6.28-4.23-7.95-11.52-5.28-17.09,13.07-2.63,30.39-5.8,32-6.16,5.73-1.26-17.46-32.43-23.67-34.15-3.31-.92-63.77,59.62-80.55,52.93-8.17-3.25-4.82-28.14-.42-47.69,5.91-6.08,12.45-7.23,16.78-3.6-1.14,7.58-2.09,14.69-1.37,14.53,3.36-.75,17.48-23.22,24.21-32.14,6.55-8.69,10.2-9.9,15.1-15.05.44-.47.77-.97,1-1.49h0Z"/>
            <path class="cls-16" d="m316.79,225.05c1.98-1.92,5.98-3.83,7.41-4.65.64-.36,2.3-1.67,3.11-1.67.05,0,.39,1.59.41,1.66.44,1.32.98,2.62,1.55,3.9,1.42,3.21,3.23,6.22,4.97,9.26,2.3,4.02,4.79,7.85,7.76,11.41,2.3,2.76,5.82,6.12,7.24,9.51,1.22,2.91-2.06,4.67-4.38,5.33-3.25.92-8.3,1.42-12.51.65,5.01-.95,8.7-1.63,9.4-1.79,5.73-1.26-17.46-32.43-23.67-34.15-.21-.06-.65.13-1.29.53h0Z"/>
            <path class="cls-37" d="m347.07,194.44c4.48,8.62,9.76,16.87,14.22,25.8,11.52,23.06,15.64,48.93,10.04,54.03-2.03,1.84-5.1,3.29-8.86,4.41.29-.41.57-.82.85-1.24,4.41-6.81,6.38-14.4,5.01-22.41-1.87-10.96-5.32-22.24-9.94-32.33-2.89-6.32-6.94-12.06-9.25-18.65-1.06-3.03-1.73-6.32-2.07-9.61h0Z"/>
          </g>
        </g>
        <g>
          <path class="cls-11" d="m298.81,268.86c-3.49-3.91-5.88-4.63-8.76-1.57-5.84,6.21-18.63,31.01-13.73,31.62,5.53.69,11.69-4.54,16.61-10.43,6.51-7.79,9.66-15.38,5.88-19.63h0Z"/>
          <path class="cls-11" d="m297.52,267.51c.42.39.85.84,1.3,1.35,3.78,4.24.62,11.84-5.88,19.63-3.1,3.71-6.69,7.15-10.31,9.02-1.66-7.75,10.12-23.9,14.89-30h0Z"/>
          <path class="cls-23" d="m282.62,297.5c-2.12,1.11-4.26,1.66-6.31,1.41-4.89-.61,7.89-25.41,13.73-31.62,2.51-2.67,4.65-2.47,7.46.22-4.77,6.1-16.56,22.25-14.89,30Z"/>
        </g>
        <g>
          <path class="cls-11" d="m257.22,209.27c3.98-3.42,4.73-5.8,1.72-8.73-6.11-5.95-30.68-19.17-31.38-14.29-.79,5.51,4.33,11.77,10.14,16.79,7.67,6.64,15.21,9.94,19.52,6.23Z"/>
          <path class="cls-23" d="m229.03,192.93c-1.18-2.26-1.78-4.53-1.47-6.68.7-4.88,25.27,8.34,31.38,14.29,2.34,2.28,2.4,4.22.45,6.58-5.98-3.16-22.74-11.86-30.36-14.19Z"/>
        </g>
      </g>
      <g>
        <path class="cls-11" d="m335.41,93.16c.22-5.7,2.26-10.17,1.67-13.95-1.62-10.36-16.45-24.41-16.45-24.41l4.68-5.6s28.45,20.28,29.16,33.23c.12,2.21-.71,10.45-1.78,13.28-7.66,20.29-17.36-.66-17.29-2.55Z"/>
        <path class="cls-26" d="m335.96,88.49c4.12,1.1,12.03,3,17.7,3.02-.28,1.72-.61,3.26-.96,4.2-7.66,20.29-17.36-.66-17.29-2.55.06-1.66.28-3.21.54-4.67Z"/>
        <path class="cls-11" d="m325.67,49.65s-2.14,6.93-2.53,7.01c-2.62.54-13.61-.19-16.3.05-.83.07-3.16.16-3.7-.67-1.2-1.87,7.31-3.76,7.3-3.81-.05-.33-8.34-6.97-7.79-8.98.64-2.31,7.47,2.89,7.65,2.61.19-.31-5.18-6.72-3.14-8.71,1.4-1.36,6.95,5.24,7.17,5.14.08-.04-1.76-7.78.26-8.23,2.13-.47,3.37,5.7,4.67,6.97.12.12.91-6.37,2.56-5.88.99.29,1.55,5.25,1.79,6.06.95,3.26,1.23,5.15,2.06,8.44Z"/>
      </g>
      <g>
        <path class="cls-11" d="m249.6,103.25s-12.78-14.67-13.91-17.26c-1.3-2.96-1.34-7.61,13.71-27.93l-4.31-6.04s-26.75,20.75-26.1,32.05c.71,12.42,15.75,30.93,25.16,36.75,9.41,5.81,5.44-17.56,5.44-17.56Z"/>
        <path class="cls-26" d="m245.64,98.64c2.24,2.63,3.96,4.61,3.96,4.61,0,0,3.97,23.38-5.44,17.56-2.72-1.68-5.9-4.41-9.07-7.75,4.98-1.92,9.1-10.91,10.55-14.43Z"/>
        <path class="cls-11" d="m244.1,52.61s2.43,6.83,2.82,6.89c2.64.43,13.59-.76,16.29-.63.84.04,3.17.03,3.67-.82,1.12-1.92-7.46-3.45-7.46-3.5.04-.33,8.04-7.31,7.41-9.3-.73-2.29-7.34,3.2-7.53,2.92-.21-.3,4.9-6.93,2.77-8.84-1.45-1.3-6.73,5.52-6.95,5.43-.09-.03,1.43-7.85-.6-8.21-2.14-.38-3.13,5.84-4.38,7.16-.11.12-1.17-6.33-2.81-5.77-.98.34-1.33,5.31-1.53,6.13-.81,3.3-1.02,5.2-1.7,8.52Z"/>
      </g>
      <g>
        <path class="cls-4" d="m246.8,97.9s27.52,30.99,43.45,25.02c15.92-5.97,41.28-22.78,44.51-33.98l21,5.69s-7.31,29.62-26.69,41.92c0,0,18.08,21.32,19.23,36.8,0,0-4.98-5.09-27.56.84-16.81,4.41-33.24,16.46-33.24,16.46-2.17-11.95-4.76-19.19-13.95-38.61l-37.4-31.4s9.99-14.7,10.67-22.74h0Z"/>
        <g>
          <path class="cls-29" d="m328.89,135.27c-2.56-3.77-4.52-7.99-7.75-11.3-1.46-1.49-6.08-5.13-6.02-5.22.13-.2,4.81,2.37,5.88,3.19,5.4,4.14,7.89,13.32,7.89,13.32Z"/>
          <path class="cls-29" d="m329.91,133.6c.11.15-.8-4.08-1.05-5.32-.63-3.15-1.41-6.25-2.4-9.32-.1-.32-.91-2.95-.91-2.95,0,0,2.16,2.71,2.93,5,1.28,3.83,1.43,12.59,1.43,12.59Z"/>
          <path class="cls-29" d="m276.1,150.93s.36-.39.37-.39c.29-.38.56-.76.82-1.16.71-1.05,1.27-2.29,1.73-3.46.54-1.38,1.42-2.53,1.94-6.61.51-3.9-.24-8.78-.24-8.78,0,0-.53,3.09-.7,4.36-.48,3.5-1.13,7.06-2.05,10.47-.19.72-1.24,3.23-1.24,3.23,0,0,.3-5.04-.29-8.16-.93-4.89-2.61-10.9-3.25-10.93-.15,0,1.41,5.53,2.18,10.91.76,5.34.74,10.52.74,10.52h0Z"/>
        </g>
      </g>
      <g>
        <path class="cls-26" d="m305.62,83.35c3.01-.82,6.22,1.28,7.15,4.7.94,3.42-.75,6.86-3.76,7.69-3.01.82-6.22-1.28-7.15-4.7-.94-3.42.75-6.86,3.76-7.69Z"/>
        <g>
          <path class="cls-11" d="m298.19,108.91s1.26,10.21,6.04,9.46c4.78-.75,8.9,9.85,4.57,15.31-4.33,5.47-26,2.02-28.05-6.89-2.06-8.91,6.82-4.67,3.66-11.63-5.19-11.43,13.79-6.25,13.79-6.25Z"/>
          <path class="cls-26" d="m284.69,115.84c-.08-.21-.18-.44-.28-.68-5.19-11.43,13.79-6.25,13.79-6.25,0,0,.51,4.14,2.12,6.96-4.46,1.88-11.86.74-15.62-.03Z"/>
        </g>
        <g>
          <path class="cls-11" d="m275.05,69.15c10.74-4.78,23.95,3.15,29.55,15.72,5.6,12.58,1.99,26.14-6.55,29.22-5.69,2.05-21.23,1.17-29.25-10.48-7.8-11.34-4.48-29.68,6.26-34.46Z"/>
          <path class="cls-26" d="m271.41,106.79c-.94-.96-1.82-2.02-2.62-3.19-7.8-11.34-4.48-29.68,6.26-34.46,10.21-4.54,22.64,2.39,28.65,13.88-1.03-.84-2.07-1.34-2.07-1.34,2.1,5.44-7.67-1.76-7.67-1.76,4.4,6.57-10.63,2.48-10.63,2.48,3.36,7.94-12.48,1.73-12.48,1.73-.95,4.56,0,17.24.56,22.65h0Z"/>
        </g>
        <path class="cls-23" d="m292.28,149.19c9.18-9.12,14.19-19.04-3.36-27.64-22.92-11.24-20.03-26.42-19.97-40.13,0,0,19.51,9.42,11.16-1.36,0,0,15.93,7.61,11.84-2.6,0,0,14.48,11.47,6.4-1.11,0,0,7.33,8.52,7.85,13.26,0,0,.59-29.78-16.49-32.12-23.26-3.18-28.86,17.59-28.86,17.59,0,0-6.4,18.47-.19,33.25,4.88,11.64,15.63,18.32,23.32,24.07,7.93,5.93,5.43,19.66,8.32,16.79Z"/>
        <g>
          <path class="cls-38" d="m282.26,89.32s-6.93-6.09-6.46,3.57c0,0,.44-6.05,6.46-3.57Z"/>
          <path class="cls-38" d="m301.6,85.65s-5.88-8.56-7.3,1.14c0,0,2.65-5.61,7.3-1.14Z"/>
          <path class="cls-38" d="m292.91,88.81s-.38,5.25,2.06,6.25c1.6.65.48,2.24-.25,3.02,0,0,5.26-2.33,2.52-3.35-4.14-1.54-4.34-5.91-4.34-5.91Z"/>
          <g>
            <path class="cls-38" d="m296.49,100.09c-1.43-.01-7.04-.2-8.93-.06-1.91.14-.64,7.58,4.31,7.87,4.63.27,6.5-7.79,4.62-7.81Z"/>
            <path class="cls-3" d="m297.05,100.51c-.12-.26-.31-.41-.56-.41-1.43-.01-7.04-.2-8.93-.06-.36.03-.61.32-.74.78.77.95,2.36,1.33,5.84,1.4,2.69.05,3.87-.86,4.39-1.71Z"/>
          </g>
          <path class="cls-38" d="m295.98,90.58s1.48-5.62,5.29-.98c-1.68-.83-3.43-.71-5.29.98Z"/>
          <path class="cls-38" d="m279.14,97.26s-.4-6.62,5.81-3.08c-2.28-.25-4.28.54-5.81,3.08Z"/>
        </g>
      </g>
    </g>
    <g>
      <g>
        <g>
          <path class="cls-47" d="m198.09,361.85c5.36-.49,8.12,2.47,8.89,8.64,1.03,8.23-.59,27.06-5.24,27.72-5.33.75-10.3-7.68-11.2-17.52-.89-9.84,2.19-18.35,7.55-18.84Z"/>
          <path class="cls-10" d="m202.47,362.44c2.54,1.16,3.98,3.87,4.5,8.05,1.03,8.23-.59,27.06-5.24,27.72-.22.03-.43.05-.65.05,5.84-15.19,3.33-29.05,1.39-35.81Z"/>
          <g>
            <path class="cls-14" d="m190.92,378.63s3.42-.26,7.58-2.37c.56-.28.79-.97.5-1.53-.28-.56-.97-.79-1.53-.5-3.7,1.87-6.73,2.13-6.73,2.13-.63.05-1.1.6-1.05,1.23.05.63.6,1.1,1.23,1.05h0Z"/>
            <path class="cls-14" d="m191.09,382.32s3.42-.26,7.58-2.37c.56-.28.79-.97.5-1.53-.28-.56-.97-.79-1.53-.5-3.7,1.88-6.73,2.13-6.73,2.13-.63.05-1.1.6-1.05,1.23.05.63.6,1.1,1.23,1.05h0Z"/>
            <path class="cls-14" d="m191.28,385.76s3.42-.26,7.58-2.37c.56-.28.79-.97.5-1.53-.28-.56-.97-.79-1.53-.5-3.7,1.88-6.73,2.13-6.73,2.13-.63.05-1.1.6-1.05,1.23.05.63.6,1.1,1.23,1.05h0Z"/>
          </g>
        </g>
        <g>
          <path class="cls-47" d="m84.29,300.08c4.96-2.1,8.48-.12,11.1,5.52,3.49,7.53,7.69,25.95,3.46,27.99-4.85,2.34-12.15-4.18-16-13.27-3.85-9.1-3.51-18.14,1.44-20.24h0Z"/>
          <g>
            <path class="cls-14" d="m84.18,322.53s3.09-.82,6.58-3.68c.47-.39.57-1.13.22-1.67-.35-.54-1.01-.66-1.48-.27-3.1,2.54-5.84,3.29-5.84,3.29-.57.15-.91.8-.77,1.44.14.64.72,1.04,1.29.89h0Z"/>
            <path class="cls-14" d="m85.54,325.23s3.09-.82,6.58-3.68c.47-.39.57-1.13.22-1.67-.35-.54-1.01-.66-1.48-.27-3.1,2.54-5.84,3.29-5.84,3.29-.57.15-.91.8-.77,1.44.14.64.72,1.04,1.29.89h0Z"/>
            <path class="cls-14" d="m87.31,328.02s3.09-.82,6.58-3.68c.47-.39.57-1.13.22-1.67-.35-.54-1.01-.66-1.48-.27-3.1,2.54-5.84,3.29-5.84,3.29-.57.15-.91.8-.77,1.44.14.64.72,1.04,1.29.89h0Z"/>
          </g>
          <path class="cls-10" d="m86.16,299.46c3.99-.91,6.96,1.23,9.23,6.13,3.49,7.53,7.69,25.95,3.46,27.99-.31.15-.63.27-.97.34.3-23.36-8.13-31.9-11.73-34.47Z"/>
        </g>
        <g>
          <path class="cls-43" d="m120.64,258.76s2.46,5.86,5.81,11.74c5.37,9.43,67.94,76.3,72.5,88.8-2.85,5.18-7.23,9.14-12.89,12.09,0,0-79.68-82.96-91.62-80.88-11.93,2.08-27.19,14.94-27.19,14.94l11.36-3.36c2.57,6.02,4.67,14.34,1.31,18.84,0,0-48.07,14.22-57,9.8-7.18-3.55-14.85-12.77,8.92-37.16,14.89-15.29,27.77-26.19,35.61-34.1,4.81-4.86,7.9-10.09,7.9-10.09l45.27,9.38h0Z"/>
          <path class="cls-5" d="m78.63,302.09c.66,1.54,1.29,3.24,1.8,4.98-13.89,5.48-26.4,13.97-24.78,11.39,1.94-3.09,11.62-13.01,11.62-13.01l11.36-3.36Z"/>
          <path class="cls-36" d="m185.41,370.55c-1.2.33,2.93,5.03,4.61,5.1,6.78.29,13.93-9.95,12.4-13.58-1.36-3.23-4.66-6.53-4.73-5.5-.23,3.87-5.19,12-12.28,13.98h0Z"/>
          <path class="cls-36" d="m79.3,321.15c-.44,1.16,5.86-.55,6.91-1.86,4.25-5.29.08-16.74-3.75-17.65-3.41-.82-7.94.68-7.15,1.34,2.98,2.48,6.6,11.29,3.99,18.17Z"/>
          <path class="cls-5" d="m68.43,258.48c4.26-4.55,6.94-9.1,6.94-9.1l45.27,9.38s1.27,3.01,3.22,6.88c-17.64,5.77-46.2-3.75-55.43-7.16Z"/>
          <path class="cls-8" d="m95.26,253.5l1.01.21c-.88,4.07-2.48,12.42-2.87,21.04-.12,2.63-.13,5.28.02,7.84.04-.01.08-.02.12-.02.65-.03,1.81-.19,2.97-1,1.19-.83,2.36-2.35,3.02-5.09.99-4.1,2.71-15.74,3.52-21.37l1.01.21c-.82,5.67-2.54,17.3-3.53,21.4-.74,3.07-2.1,4.75-3.43,5.69-1.37.96-2.74,1.14-3.51,1.18-.04,0-.07,0-.1,0,.19,2.43.54,4.76,1.1,6.9-.05,0-.09.01-.14.02-.29.05-.57.11-.86.17-1.23-4.75-1.47-10.42-1.22-15.98.4-8.68,2-17.09,2.89-21.2Z"/>
        </g>
      </g>
      <g>
        <path class="cls-18" d="m157.73,233.3s7.96-7.83,9.08-19.51l-4.6-3.77-6.16,15.55,1.68,7.73Z"/>
        <g>
          <path class="cls-40" d="m166.25,210.51l17.36,8.2s-.2-8.03-1.76-16.47l8.59-2.59s13.48,31.88,7.24,37.24c-5.07,4.36-30.46-6.07-40.35-10.4-9.31-4.08,8.93-15.97,8.93-15.97Z"/>
          <path class="cls-15" d="m169.84,212.2c-2.45,2.71-6.67,8.76-5.42,17.28-2.76-1.12-5.21-2.17-7.1-3-9.31-4.08,8.93-15.97,8.93-15.97l3.59,1.7Z"/>
          <path class="cls-40" d="m190.43,203.73s-7.07,1.59-7.34,1.3c-1.77-2.01-6.62-11.89-8.17-14.11-.48-.68-1.72-2.66-1.27-3.54,1.02-1.97,6.9,4.47,6.94,4.43.26-.21,1.88-10.71,3.9-11.23,2.32-.6,1.22,7.91,1.55,7.93.36.01,3.24-7.84,5.99-7.06,1.88.53-1.07,8.64-.88,8.78.08.05,5.87-5.4,7.26-3.88,1.47,1.61-3.26,5.77-3.71,7.53-.04.16,5.97-2.39,6.37-.71.24,1.01-3.77,3.96-4.36,4.57-2.35,2.45-3.85,3.64-6.29,5.99h0Z"/>
        </g>
      </g>
      <g>
        <g>
          <path class="cls-40" d="m91.6,168.87s-46.18-51.55-47.13-51.52c-.95.03-7.69,10.18-7.69,10.18,0,0,38.38,42.94,45.22,56.93l9.6-15.59Z"/>
          <path class="cls-15" d="m87.54,164.34c2.52,2.81,4.06,4.53,4.06,4.53l-9.6,15.59c-1.37-2.81-4.01-6.78-7.36-11.34,3.31-4.72,9.17-7.44,12.9-8.78Z"/>
        </g>
        <g>
          <path class="cls-40" d="m45.02,119.02s1.43-1.14,1.24-5.32c-.13-2.89-1.16-4.21-2.14-5.19-2.16-2.14-4.18.54-4.54.38-.35-.15-3.93-5.27-7.95-2-1.55,1.26-.6,2.61-.6,2.61,0,0-2.01-.57-3.41,1.11-1.37,1.63-.07,3.77-.07,3.77,0,0-1.61.23-1.45,2.28.12,1.53,1.33,2.28,1.33,2.28,0,0-1.42-.16-1.3,1.96.13,2.13.69,2.55,3.21,3.75,2.31,1.1,5.46,2.67,8.05,3.21,1.01.21,7.64-8.85,7.64-8.85Z"/>
          <path class="cls-19" d="m36.11,112.58c.88-1.43,2.08-2.67,3.25-3.87.1.11.17.18.21.19.03.01.08,0,.14-.02-.36.39-.79.86-.97,1.08-.34.4-.67.81-.98,1.23-.26.36-.53.71-.77,1.08-.75,1.15-1.61,2.49-1.02,3.88.22.53.57.86,1.19.92.44.04.94-.09,1.33-.26,1.03-.44,2-.99,2.95-1.59.33-.21.66-.42.96-.66.11-.09-.74.81-1.21,1.16-.56.42-1.35,1.01-2.2,1.44-.04.11-.06.2-.07.23-.27.86-.28,1.81-.09,2.69.06.28.25.99.17.84-.38-.73-.87-1.99-.86-2.81,0-.19,0-.41.05-.62-.79.25-1.57.26-2.2-.26-.11.12-.27.21-.37.26-.1.06-.22.1-.33.14.02.1,0,.23.03.36.02.15.03.3.04.46,0,.87-.68,1.57-1.47,1.9.18.34.3.77.39,1.13.11.43.2.89.15,1.33-.07.75-.84,1.18-1.51,1.32-1.37.31-2.74.05-4.02-.49-.01,0-.03,0-.04,0h.02s.02,0,.02,0c.29.05.58.11.87.16,1.07.17,2.69.33,3.59-.45.65-.56.53-1.71.27-2.43-.05-.15-.16-.29-.24-.42-.13.03-.26.05-.39.05-2.11.11-4.37-.45-6.25-1.44.26-.16.52-.17.62-.16.31.15.66.26.9.34,1.62.52,3.65,1.22,5.31.55.43-.17.95-.47,1.16-.91.15-.3.15-.65.14-.97,0-.03-.02-.14-.04-.24-.52.06-1.08,0-1.53-.08-1.39-.23-2.7-.98-3.93-1.62-.8-.42-1.6-.86-2.26-1.49.23-.11.4-.13.4-.13,0,0-.01-.02-.03-.06.03.03.07.05.11.08.56.42,1.17.74,1.79,1.06,1.29.68,2.58,1.27,4,1.64.55.15,1.31.35,1.87.13.16-.06.31-.17.43-.3-.02-.03-.05-.06-.07-.09-.8-1.09-.53-2.26.01-3.39.04-.08.08-.16.12-.24-.28-.31-.6-.57-.85-.78-.91-.77-1.87-1.57-2.85-2.24-.36-.25-.71-.51-1.07-.76-.07-.12-.2-.39-.24-.74.81.42,1.56.97,2.29,1.51.53.39,1.03.81,1.54,1.22.4.33.82.63,1.25.93.09.06.2.14.3.22Z"/>
        </g>
      </g>
      <g>
        <path class="cls-35" d="m90.04,164.7s18.28,22.75,35.14,27.71c16.86,4.96,37.12,14.49,43,18.74-6.48,5.27-9.16,13.55-10.53,22.15l-21.05-9.08s-9.38,11.6-11.32,23.99c-1.45,9.25-1.21,15.99-1.21,15.99-27.55.84-47.42-5.75-53.72-9.42,0,0,1.24-27.24,18.17-54.99l-12.85-14.51c1.88-9.69,6.12-17.09,14.36-20.58Z"/>
        <path class="cls-18" d="m136.65,223.59s-.28-9.09,1.65-18.64c0,0-5.48,11.1-1.65,18.64Z"/>
        <path class="cls-18" d="m120.73,247.16s-24.5,9.29-44.57,3.96c0,0,20.82,1.47,44.57-3.96Z"/>
        <path class="cls-18" d="m88.89,199.48s6.98-8.92,13.48-10.95c0,0-10.42,1.44-13.48,10.95Z"/>
        <path class="cls-9" d="m116.56,216.21c1.02-.52,9.08,4.07,11.16,4.74,1.31.42-3.65,8.95-5,9.52-1.34.57-4.5,1.42-6.75.58-1.88-.7-3.74-4.67-3.19-6.45.55-1.78,2.2-7.59,3.77-8.4Z"/>
      </g>
      <g>
        <g>
          <g>
            <path class="cls-13" d="m119.21,202.06s-5.5,10.31-6.41,12.73c-.38,1-4.38-.19-4.15-1.76.35-2.39,3.4-8.56,6.25-12.57,1.02-1.42,4.31,1.6,4.31,1.6Z"/>
            <path class="cls-39" d="m114.72,204.81c.7.08,1.21.73,1.13,1.45-.08.72-.72,1.25-1.42,1.17-.7-.08-1.21-.73-1.13-1.45.08-.72.72-1.25,1.42-1.17Z"/>
            <path class="cls-39" d="m112.41,209.39c.7.08,1.21.73,1.13,1.45-.08.72-.72,1.25-1.42,1.17-.7-.08-1.21-.73-1.13-1.45.08-.72.72-1.25,1.42-1.17Z"/>
          </g>
          <path class="cls-13" d="m115.71,203.03s13.32-1.46,16.93,6.97c0,0,8.89-13.85-2-19.65-13.71-7.31-24.17-.81-30.12,6.77,0,0,11.39-2.68,15.18,5.92Z"/>
          <g>
            <path class="cls-40" d="m136.96,185.27s-4.78,5.45-4.19,10.26c.7,5.66-13.19,7.77-17.25,7.76,0,0-4.35-8.1.23-14.16,0,0,2.94-.83,5.48-6.51,2.53-5.68,15.73,2.65,15.73,2.65Z"/>
            <path class="cls-15" d="m118.06,187.52c.96-.97,2.1-2.5,3.17-4.9,2.53-5.68,15.73,2.65,15.73,2.65,0,0-1.42,1.62-2.62,3.87-7.32,1.07-13.19-.48-16.28-1.62Z"/>
          </g>
        </g>
        <g>
          <path class="cls-15" d="m116.99,154.9c3,.85,4.66,4.31,3.69,7.72-.97,3.41-4.19,5.49-7.2,4.63-3-.85-4.65-4.31-3.69-7.72.97-3.41,4.19-5.49,7.2-4.63Z"/>
          <g>
            <path class="cls-40" d="m146.42,138.89c10.85,4.52,13.86,20.32,8.22,33.85-5.63,13.53-23.37,17.21-33.13,12.95-7.67-3.35-11.63-13.53-6-27.05,5.64-13.53,20.05-24.27,30.9-19.74Z"/>
            <path class="cls-15" d="m117.14,154.93c6.76-10.71,19.97-19.91,29.28-16.03,10.85,4.52,13.86,20.32,8.22,33.85-.71,1.7-1.6,3.24-2.65,4.63-.79.05-2.46-.37-2.59-.33,0,0-7.39-6.7-1.64-19.57,0,0-28.08-4.08-14.87-6.8,0,0-10.81,2.05-7.89-1.32,0,0-4.56,2.39-7.86,5.58Z"/>
          </g>
          <g>
            <path class="cls-19" d="m151.09,180.06s-10.92-9.38-.01-25.35c0,0-10.02.09-15.33-1.79-3.61-1.28-.56-2.8,2.49-3.77,0,0-16.43.71-9.96-3.43,0,0-6.47,1.17-11.7,10.74,0,0-.03-24.11,23.31-22.14,0,0-4-.92-6.52-1.08-2.52-.16,3.15-3.54,11.15-1.03,8,2.51,14.45,4.99,13.61,14.52,0,0,20.28,9.7-7.03,33.33Z"/>
            <path class="cls-28" d="m148.28,159.62c5.96,1.7,11.73,2.77,16.16,3.44-1.6,4.59-5.52,10.22-13.36,17,0,0-8.7-7.48-2.81-20.44Zm-27.73-16.87c1.04,1.72,2.34,3.3,3.83,4.75-2.27,1.49-5.2,4.17-7.81,8.96,0,0,0-7.44,3.98-13.71Z"/>
          </g>
          <path class="cls-40" d="m155.19,175.82c2.49,1.88,2.79,5.7.66,8.53-2.13,2.83-5.89,3.61-8.38,1.73-2.49-1.88-2.79-5.7-.66-8.53,2.13-2.83,5.89-3.61,8.38-1.73Z"/>
          <g>
            <path class="cls-28" d="m138.18,168.83c.57.17.83,1.03.56,1.91-.26.88-.94,1.46-1.51,1.29-.57-.17-.83-1.03-.56-1.91.26-.88.94-1.46,1.51-1.29Z"/>
            <path class="cls-28" d="m124.25,162.6c.57.17.83,1.03.56,1.91-.26.88-.94,1.46-1.51,1.29s-.83-1.03-.56-1.91c.26-.88.94-1.46,1.51-1.29Z"/>
            <path class="cls-28" d="m137.3,165.04s7.56-5.29,6.03,4.26c0,0,.23-6.06-6.03-4.26Z"/>
            <path class="cls-28" d="m121.82,158.18s7.96-6.65,6.69,3.09c0,0-1.01-6.13-6.69-3.09Z"/>
            <path class="cls-28" d="m129.28,165.61s-2.08,4.85-3.07,5.18c-1.64.54-.73,2.18-.09,3.03,0,0-4.93-2.75-2.14-3.61,1.79-.55,5.3-4.6,5.3-4.6Z"/>
            <g>
              <path class="cls-28" d="m124.21,175.63c1.55.16,7.66.67,9.69,1.02,2.06.35-.03,6.67-5.43,6.32-5.05-.33-6.3-7.55-4.26-7.34Z"/>
              <path class="cls-3" d="m123.56,175.92c.15-.21.37-.32.65-.29,1.55.16,7.66.67,9.69,1.02.39.07.63.35.73.76-.92.73-2.69.88-6.47.52-2.93-.28-4.12-1.21-4.6-2.01Z"/>
            </g>
          </g>
        </g>
      </g>
    </g>
  </g>
</svg>