<svg xmlns="http://www.w3.org/2000/svg" width="21.986" height="22" viewBox="0 0 21.986 22">
  <g id="Grupo_3" data-name="Grupo 3" transform="translate(428.75 255.216)">
    <path id="Trazado_19" data-name="Trazado 19" d="M-417.082-255.21a5.907,5.907,0,0,1,5.158,2.6c.645,1.177.82,2.587,1.448,3.666.234.4.8.741,1,1.068a14.983,14.983,0,0,1,.86,2.227,47.234,47.234,0,0,1,1.448,4.732,9.045,9.045,0,0,1,.41,2.645c-.113.627-1.439,1.444-2.082,1.9a9.822,9.822,0,0,1-2.579,1.392c-.292.081-.736.055-.951.138-.532.2-.7.934-1.266,1.16a10.414,10.414,0,0,1-1.9.325,14,14,0,0,1-2.037.139c-.382-.013-.922-.221-1.312-.279-.82-.122-1.782-.091-2.715-.139a25.3,25.3,0,0,1-5.2-.417c-.731-.194-1.659-.512-1.854-.975-.289-.678.226-1.947.5-2.738.315-.911.607-1.712.906-2.459.605-1.514,1.626-3.1,1.81-4.965.12-1.229-.05-2.275.089-3.248a7.573,7.573,0,0,1,2.76-5.15A11.207,11.207,0,0,1-417.082-255.21Zm3.439,1.253a5.553,5.553,0,0,0-4.389-.927c.427.09.866.438,1.313.512.242.039.5-.022.723,0a11.328,11.328,0,0,1,2.579,1.024,8.607,8.607,0,0,0,.634.6c.183.2.3.6.587.557a3.5,3.5,0,0,0-1.448-1.771Zm-2.172.974a11.817,11.817,0,0,0-2.715-1.81,2.98,2.98,0,0,0-1.177.6c.666.307.8,1.093,1.177,1.624a9.224,9.224,0,0,0,.9,1.024c.64.657,1.186,1.359,1.81,2.042a4.911,4.911,0,0,0-1.086-2.088c-.49-.629-.8-1.341-1.266-1.947-.218-.286-.6-.431-.724-.789.663-.251,1.053.424,1.493.65.144.074.326.06.453.139a4.149,4.149,0,0,1,1.267,2.042,6.126,6.126,0,0,1,.678,2.6c-1.511-.041-3.176-.852-4.525-.325.021.307.512.756.453,1.16-.062.424-.769.563-1.127.835a5.588,5.588,0,0,0-1.176,1.346,11.028,11.028,0,0,0-1.127,3.248,22.537,22.537,0,0,0-.724,3.712c-.3.546-1.186.334-1.856.6a13.286,13.286,0,0,0-1.583,1.024c-.5.334-2.131,1.015-1.176,1.717a8.63,8.63,0,0,1,2.4-1.855c.692-.377,1.509-.425,2.171-.789.528-.29.623-1.315.77-2.042a6.733,6.733,0,0,1,.41-1.716,26.972,26.972,0,0,0,5.112,2.6,22.136,22.136,0,0,1-3.893-.325c-.292-.024-1.065-.183-1.086.232a29.44,29.44,0,0,0,4.611.512c-.114.307-.545.314-.815.372-1.237.264-3.24.3-3.71,1.207-.333.638.028,1.758-.317,2.459-.151.307-.331.337-.543.65.882-.039,1.249-.607,1.449-1.346a4.323,4.323,0,0,1,.543,1.434c.426-.042.556-.388.723-.7a2.122,2.122,0,0,1-.18-2.6c1.3-.166,2.5-.438,3.8-.6.1-.1-.232-.323-.045-.512a2.486,2.486,0,0,0,1.127-.279,16.431,16.431,0,0,1,4.072,0c.315.019.659-.124.9.138a2.539,2.539,0,0,1-1.312,1.346c-.568.351-1.152.592-1.674.974-.2.149-.314.425-.588.417-.4-.011-.717-.709-.9-1.113-.291-.615-.512-1.878-1.127-.974.471.936,1.289,1.625,1.809,2.505.125.212.142.494.41.6a1.874,1.874,0,0,0,.724-.836,28.691,28.691,0,0,1,3.167-2.181,3.652,3.652,0,0,0,1.041-.743,3.317,3.317,0,0,1-.9-2.32c.081-.625.842-1.127.768-1.856-.048-.486-.723-.83-.813-1.434-.1-.682.273-1.373,0-2.042a1.77,1.77,0,0,0-2.391-.742,1.769,1.769,0,0,0-.6.509c.652-.1,1.285-.58,1.991-.325a1.679,1.679,0,0,1,.861,1.716c-.18.687-1.639.977-2.489.65-.26-.1-.41-.358-.588-.417-.244-.081-.59.016-.815-.093.048-.307.667-.029.678-.372-.244-.2-1.081-.065-1.221,0,.036.676.6.809.769,1.345a6.484,6.484,0,0,0-.362,1.624,4.346,4.346,0,0,0-3.348,2.181,16.748,16.748,0,0,0-.724-2.644,3.978,3.978,0,0,1,2.94-.742c.307.014.726.178.9-.139a2.29,2.29,0,0,0-.995-.836,3.627,3.627,0,0,1-4.616-.742,4.833,4.833,0,0,1,2.534-1.531,9.629,9.629,0,0,0,1.991-.093,3.811,3.811,0,0,0-4.525,1.068c-.257.291-.342.717-.678.882a1.446,1.446,0,0,1-.82-.557,5.669,5.669,0,0,1,3.575-2.367,4.623,4.623,0,0,1,2.217.325c.41.183.723.6,1.176.7,1.332.268,2.374-.85,3.71-.65,1.527,1,1.915,3.153,2.357,5.336.288,1.434.6,2.911.815,4.269.546-.307.319-.873.18-1.578-.217-1.111-.479-2.126-.723-3.11-.505-2.028-1.025-3.893-2.127-4.965-.221-.082-.365-.244-.588-.325-.155-.29-.254-.637-.679-.65-.159.179.459.352.181.512a.8.8,0,0,1-.742-.859.8.8,0,0,1,.017-.117c.415-.069.791.148,1.086.047-.476-.82-1.822-.2-2.443.046-.225-.155-.211-.557-.453-.7v1.16c-.278.071-.634.06-.9.139-.03.233.059.586-.045.742-.433-.186-.9-.4-1.359-.6s-1.014-.315-1.266-.742c.957.025,1.537.429,2.489.464.091-2.016-.2-3.413-1.046-4.415Zm1.4,6.4a4.643,4.643,0,0,0,.045.742c.444-.071,1.067.042,1.312-.232-.26-.121-.717-.038-.995-.139,0-.123-.017-.265.044-.325a2.563,2.563,0,0,0,1,.046c-.1.008-.021-.164-.045-.233a3.093,3.093,0,0,0-1.36.14Z" transform="translate(0 0)" fill="#1c1a1a" fill-rule="evenodd"/>
    <path id="Trazado_20" data-name="Trazado 20" d="M-283.217-196.1c.278.4-.258.711,0,1.16a.583.583,0,0,1-.452.279c-.08-.367-.379-.706-.226-1.16C-283.676-195.919-283.435-196-283.217-196.1Z" transform="translate(-129.34 -52.802)" fill="#1c1a1a" fill-rule="evenodd"/>
    <path id="Trazado_21" data-name="Trazado 21" d="M-360.939-153.717c-.347-.279-.348-.717-.587-1.068A7.024,7.024,0,0,0-362.7-155.9a6.937,6.937,0,0,0,.226,1.9c.394.735,1.77.907,2.4,1.486a29.731,29.731,0,0,1-5.2-2.785,6.281,6.281,0,0,1,.588-2.367c.477-.171,1.154.572,1.629.882A3.759,3.759,0,0,1-360.939-153.717Z" transform="translate(-56.687 -87.108)" fill="#1c1a1a" fill-rule="evenodd"/>
    <path id="Trazado_22" data-name="Trazado 22" d="M-277.045-150.166a8.022,8.022,0,0,1-.724,2.181,10.042,10.042,0,0,1-2.036-1.717c.13-.767-.172-1.092-.769-1.114.321-.477.82.056,1.221.138C-278.515-150.508-277.51-150.749-277.045-150.166Z" transform="translate(-132.344 -93.071)" fill="#1c1a1a" fill-rule="evenodd"/>
    <path id="Trazado_23" data-name="Trazado 23" d="M-308.424-130.253a1.944,1.944,0,0,0-.41.278,4.83,4.83,0,0,1-.9-1.025c-.1.186-.015.572-.045.835h-.543c-.072-.237-.169-.541-.226-.835s0-.676-.227-.836c-.257.243.1,1.127.045,1.624-.1.086-.331.032-.5.046-.229-.521-.114-1.4-.5-1.763-.322.438-.014,1.269.045,1.763-.215-.036-.291.073-.5.046-.11-.538-.251-1.042-.363-1.578-.487.253-.1,1.025-.135,1.624-.2-.032-.254.079-.453.046a5.052,5.052,0,0,0-.135-.835c-.2.537-1.025.637-1.041,1.207a.39.39,0,0,1-.508-.216.391.391,0,0,1,.055-.388c.149-.2.706-.318.951-.512a13.168,13.168,0,0,0,1.537-2c.58.025,1.141.069,1.765.046A8.014,8.014,0,0,1-308.424-130.253Z" transform="translate(-101.736 -109.367)" fill="#1c1a1a" fill-rule="evenodd"/>
    <path id="Trazado_24" data-name="Trazado 24" d="M-253.718-107.343c-.008.193-.24.158-.271.325.035.18.139.29.135.512C-254.629-106.293-254.442-107.959-253.718-107.343Z" transform="translate(-155.763 -131.952)" fill="#1c1a1a" fill-rule="evenodd"/>
  </g>
</svg>
