<svg xmlns="http://www.w3.org/2000/svg" xmlns:xlink="http://www.w3.org/1999/xlink" width="126.404" height="112.957" viewBox="0 0 126.404 112.957">
  <defs>
    <linearGradient id="linear-gradient" x1="0.198" y1="-0.109" x2="0.799" y2="1.148" gradientUnits="objectBoundingBox">
      <stop offset="0" stop-color="#1414b3"/>
      <stop offset="1" stop-color="#077bc8"/>
    </linearGradient>
  </defs>
  <g id="Grupo_84" data-name="Grupo 84" transform="translate(-713.187 -1779.439)">
    <path id="Trazado_28" data-name="Trazado 28" d="M-533.67-244.758h-50.2a13.007,13.007,0,0,0-11.263,6.5l-25.1,43.473a13,13,0,0,0,0,13.005l25.1,43.473a13.014,13.014,0,0,0,11.263,6.5h50.2a13.01,13.01,0,0,0,11.263-6.5l25.1-43.473a13.015,13.015,0,0,0,0-13.005l-25.1-43.473A13,13,0,0,0-533.67-244.758Z" transform="translate(1335.157 2024.197)" fill="url(#linear-gradient)"/>
    <path id="Icon_awesome-chalkboard-teacher" data-name="Icon awesome-chalkboard-teacher" d="M20.915,35.394a2.3,2.3,0,0,0-.71.11,13.264,13.264,0,0,1-4.117.695,13.275,13.275,0,0,1-4.118-.695,2.294,2.294,0,0,0-.709-.11A11.263,11.263,0,0,0,0,46.718a4.814,4.814,0,0,0,4.826,4.764H27.35a4.814,4.814,0,0,0,4.826-4.764A11.263,11.263,0,0,0,20.915,35.394Zm-4.826-3.218a9.653,9.653,0,1,0-9.653-9.653A9.653,9.653,0,0,0,16.088,32.177ZM59.527,0H20.915a4.914,4.914,0,0,0-4.826,4.986V9.653a12.725,12.725,0,0,1,6.435,1.79V6.435H57.918V35.394H51.482V28.959H38.612v6.435H30.946a12.815,12.815,0,0,1,3.991,6.435h24.59a4.914,4.914,0,0,0,4.826-4.986V4.986A4.914,4.914,0,0,0,59.527,0Z" transform="translate(744.432 1810.684)" fill="#efecec"/>
  </g>
</svg>
