<svg xmlns="http://www.w3.org/2000/svg" width="87.752" height="67.028" viewBox="0 0 87.752 67.028">
  <g id="Grupo_91" data-name="Grupo 91" transform="translate(-2249 446)">
    <path id="Trazado_10" data-name="Trazado 10" d="M91.962,176.163l-.8-1.2a5.9,5.9,0,0,0-4.918-2.455H62.5v26.439L88.181,178.18A6.676,6.676,0,0,1,91.962,176.163Z" transform="translate(2225.734 -618.504)" fill="#1e1564"/>
    <path id="Trazado_11" data-name="Trazado 11" d="M114.743,208.351l-11.771-17.628-23.4,17.934L102.2,232.05l12.545-18.789A4.344,4.344,0,0,0,114.743,208.351Z" transform="translate(2221.249 -623.292)" fill="#1e1564"/>
    <path id="Trazado_12" data-name="Trazado 12" d="M62.254,250.515a5.474,5.474,0,0,1-.7,2.621H85.992a6.222,6.222,0,0,0,3.353-1l-27.091-27.87Z" transform="translate(2225.984 -632.108)" fill="#1e1564"/>
    <path id="Trazado_13" data-name="Trazado 13" d="M33.828,172.54a5.845,5.845,0,0,0-4.691,2.428l-19.1,28.6a4.344,4.344,0,0,0,0,4.91l19.1,28.6a5.89,5.89,0,0,0,4.917,2.455h.474a5.474,5.474,0,0,1-.7-2.621Z" transform="translate(2239.723 -618.513)" fill="#1e1564"/>
  </g>
</svg>
