<svg id="Componente_5_1" data-name="Componente 5 – 1" xmlns="http://www.w3.org/2000/svg" xmlns:xlink="http://www.w3.org/1999/xlink" width="204.486" height="67.818" viewBox="0 0 204.486 67.818">
  <defs>
    <clipPath id="clip-path">
      <rect width="204.486" height="67.818" fill="none"/>
    </clipPath>
  </defs>
  <g id="Cuadrícula_de_repetición_2" data-name="Cuadrícula de repetición 2" clip-path="url(#clip-path)">
    <g transform="translate(-139 -123.091)">
      <g id="Componente_4_4" data-name="Componente 4 – 4" transform="translate(139 123.091)">
        <path id="Trazado_10" data-name="Trazado 10" d="M91.962,176.163l-.8-1.2a5.9,5.9,0,0,0-4.918-2.455H62.5v26.439L88.181,178.18A6.676,6.676,0,0,1,91.962,176.163Z" transform="translate(-23.266 -172.504)" fill="#fff"/>
        <path id="Trazado_11" data-name="Trazado 11" d="M114.743,208.351l-11.771-17.628-23.4,17.934L102.2,232.05l12.545-18.789A4.344,4.344,0,0,0,114.743,208.351Z" transform="translate(-27.751 -177.292)" fill="#fff"/>
        <path id="Trazado_12" data-name="Trazado 12" d="M62.254,250.515a5.474,5.474,0,0,1-.7,2.621H85.992a6.222,6.222,0,0,0,3.353-1l-27.091-27.87Z" transform="translate(-23.016 -186.108)" fill="#fff"/>
        <path id="Trazado_13" data-name="Trazado 13" d="M33.828,172.54a5.845,5.845,0,0,0-4.691,2.428l-19.1,28.6a4.344,4.344,0,0,0,0,4.91l19.1,28.6a5.89,5.89,0,0,0,4.917,2.455h.474a5.474,5.474,0,0,1-.7-2.621Z" transform="translate(-9.277 -172.513)" fill="#fff"/>
        <path id="Trazado_14" data-name="Trazado 14" d="M134.94,228.139c-7.619,0-12.939,5.506-12.939,13.392s5.32,13.413,12.939,13.413c7.6,0,12.912-5.516,12.912-13.413S142.543,228.139,134.94,228.139Zm0,21.588c-4.346,0-7.27-3.294-7.27-8.2s2.924-8.174,7.27-8.174c4.329,0,7.243,3.283,7.243,8.174S139.27,249.727,134.94,249.727Z" transform="translate(-38.902 -187.126)" fill="#fff"/>
        <path id="Trazado_15" data-name="Trazado 15" d="M180.109,214.789a2,2,0,0,0-.49,1.361l-.066,10.974a.224.224,0,0,1-.212-.06,10,10,0,0,0-7.265-2.6c-7.28,0-11.986,5.245-11.986,13.364,0,8.164,4.705,13.44,11.986,13.44a9.6,9.6,0,0,0,7.723-3.24l.01.833a2,2,0,0,0,.719,1.47,1.81,1.81,0,0,0,1.2.436h3.556V214.14H181.53A1.892,1.892,0,0,0,180.109,214.789Zm-7.532,31.259c-6.061,0-6.715-5.751-6.715-8.223,0-5.157,2.445-8.119,6.715-8.119,4.3,0,7.194,3.262,7.194,8.119C179.771,242.742,176.879,246.048,172.577,246.048Z" transform="translate(-48.913 -183.447)" fill="#fff"/>
        <path id="Trazado_16" data-name="Trazado 16" d="M211.157,228.139a11.511,11.511,0,0,0-8.691,3.671,14.421,14.421,0,0,0-3.442,11.093,13.162,13.162,0,0,0,4.684,8.958,12.716,12.716,0,0,0,8.19,3.071c.387,0,.768-.021,1.154-.06,4.76-.457,8.077-3.077,9.329-7.373l.223-.768-3.072-.866a1.962,1.962,0,0,0-2.243.893c-1.073,2.1-2.963,3.115-5.784,3.115-3.4,0-5.816-2.08-6.616-5.7l-.055-.158a.333.333,0,0,1,.044-.257.412.412,0,0,1,.3-.158h17.58l.06-.724c.049-.627.049-1.225.049-1.8C222.865,233.22,218.269,228.139,211.157,228.139Zm-.027,4.994c3.354,0,5.462,2,6,5.647H204.835C205.57,235.224,207.878,233.133,211.13,233.133Z" transform="translate(-59.131 -187.126)" fill="#fff"/>
        <path id="Trazado_17" data-name="Trazado 17" d="M241.72,231.3l.006-.724a1.931,1.931,0,0,0-1.917-1.95h-3.5v25.8h3.643a2.049,2.049,0,0,0,1.285-.517,1.917,1.917,0,0,0,.616-1.384V241.368a7.527,7.527,0,0,1,2.238-5.751A6.6,6.6,0,0,1,249.186,234a1.958,1.958,0,0,0,1.656-.719,1.79,1.79,0,0,0,.43-1.106l.087-3.687-.637-.142A8.724,8.724,0,0,0,241.72,231.3Z" transform="translate(-68.945 -187.115)" fill="#fff"/>
        <path id="Trazado_18" data-name="Trazado 18" d="M269.449,239.172c-4-.9-5.337-1.513-5.337-3.344,0-2.352,2.26-2.848,4.155-2.848,2.053,0,4.624.648,5.212,3.665a1.8,1.8,0,0,0,.822,1.3,1.9,1.9,0,0,0,1.313.3l3.174-.419-.016-.714c-.142-5.7-3.981-8.975-10.527-8.975-5.849,0-9.65,3.115-9.677,7.94,0,4.994,3.72,6.786,9.715,8.054,3.736.79,5.146,1.269,5.146,3.219,0,.752,0,2.75-4.307,2.75-3.491,0-5.435-1.247-5.931-3.638a1.651,1.651,0,0,0-.79-1.356,1.554,1.554,0,0,0-1.378-.321l-3.333.446.049.741c.408,5.784,4.487,8.969,11.485,8.969,6.061,0,9.824-3.022,9.824-7.891C279.05,241.732,274.89,240.381,269.449,239.172Zm-7.5,6.586h0Z" transform="translate(-74.564 -187.126)" fill="#fff"/>
      </g>
    </g>
  </g>
</svg>
