<svg xmlns="http://www.w3.org/2000/svg" xmlns:xlink="http://www.w3.org/1999/xlink" width="126.404" height="112.957" viewBox="0 0 126.404 112.957">
  <defs>
    <linearGradient id="linear-gradient" x1="0.182" y1="-0.071" x2="0.826" y2="1.092" gradientUnits="objectBoundingBox">
      <stop offset="0" stop-color="#1414b3"/>
      <stop offset="1" stop-color="#077bc8"/>
    </linearGradient>
  </defs>
  <g id="Grupo_83" data-name="Grupo 83" transform="translate(-713.187 -1555)">
    <path id="Trazado_27" data-name="Trazado 27" d="M-533.67-244.758h-50.2a13.007,13.007,0,0,0-11.263,6.5l-25.1,43.473a13,13,0,0,0,0,13.005l25.1,43.473a13.014,13.014,0,0,0,11.263,6.5h50.2a13.01,13.01,0,0,0,11.263-6.5l25.1-43.473a13.015,13.015,0,0,0,0-13.005l-25.1-43.473A13,13,0,0,0-533.67-244.758Z" transform="translate(1335.157 1799.758)" fill="url(#linear-gradient)"/>
    <path id="Icon_awesome-network-wired" data-name="Icon awesome-network-wired" d="M54.077,22.307V20.955A1.352,1.352,0,0,0,52.725,19.6H29.067v-3.38H35.15a2.7,2.7,0,0,0,2.7-2.7V2.7A2.7,2.7,0,0,0,35.15,0H18.927a2.7,2.7,0,0,0-2.7,2.7V13.519a2.7,2.7,0,0,0,2.7,2.7h6.084V19.6H1.352A1.352,1.352,0,0,0,0,20.955v1.352a1.352,1.352,0,0,0,1.352,1.352h8.788v3.38H5.408a2.7,2.7,0,0,0-2.7,2.7V40.558a2.7,2.7,0,0,0,2.7,2.7H18.927a2.7,2.7,0,0,0,2.7-2.7V29.743a2.7,2.7,0,0,0-2.7-2.7H14.2v-3.38H39.882v3.38H35.15a2.7,2.7,0,0,0-2.7,2.7V40.558a2.7,2.7,0,0,0,2.7,2.7H48.67a2.7,2.7,0,0,0,2.7-2.7V29.743a2.7,2.7,0,0,0-2.7-2.7H43.938v-3.38h8.788A1.352,1.352,0,0,0,54.077,22.307ZM21.631,10.815V5.408H32.446v5.408ZM16.223,37.854H8.112V32.446h8.112Zm29.743,0H37.854V32.446h8.112Z" transform="translate(749.238 1589.85)" fill="#efecec"/>
  </g>
</svg>
