<svg xmlns="http://www.w3.org/2000/svg" width="25.997" height="25.997" viewBox="0 0 25.997 25.997">
  <path id="Icon_awesome-whatsapp" data-name="Icon awesome-whatsapp" d="M22.1,6.028A12.887,12.887,0,0,0,1.828,21.574L0,28.247l6.83-1.793a12.843,12.843,0,0,0,6.157,1.567h.006A13.006,13.006,0,0,0,26,15.138,12.933,12.933,0,0,0,22.1,6.028ZM12.993,25.85a10.688,10.688,0,0,1-5.455-1.491l-.389-.232L3.1,25.189l1.079-3.952-.255-.406a10.728,10.728,0,1,1,19.9-5.693A10.827,10.827,0,0,1,12.993,25.85Zm5.873-8.02c-.319-.162-1.9-.94-2.2-1.045s-.511-.162-.725.162-.83,1.045-1.021,1.265-.377.244-.7.081a8.762,8.762,0,0,1-4.381-3.83c-.331-.569.331-.528.946-1.758a.6.6,0,0,0-.029-.563c-.081-.162-.725-1.747-.992-2.391-.261-.627-.528-.54-.725-.551s-.4-.012-.615-.012a1.192,1.192,0,0,0-.859.4,3.617,3.617,0,0,0-1.126,2.687,6.306,6.306,0,0,0,1.311,3.331,14.384,14.384,0,0,0,5.5,4.863c2.043.882,2.843.957,3.865.807a3.3,3.3,0,0,0,2.17-1.532,2.692,2.692,0,0,0,.186-1.532C19.4,18.069,19.184,17.988,18.865,17.831Z" transform="translate(0 -2.25)" fill="#EFECEC"/>
</svg>
