<svg xmlns="http://www.w3.org/2000/svg" width="43.297" height="44.7" viewBox="0 0 43.297 44.7">
  <path id="Icon_awesome-amazon" data-name="Icon awesome-amazon" d="M25.455,15.291C20.6,15.47,8.543,16.837,8.543,27.014c0,10.925,13.8,11.374,18.309,4.31a46.015,46.015,0,0,0,4.52,4.67l5.667-5.587s-3.223-2.524-3.223-5.268V10.462c0-2.524-2.445-8.212-11.2-8.212-8.78,0-13.44,5.488-13.44,10.407l7.334.678C18.132,8.4,21.913,8.4,21.913,8.4c4.061-.01,3.542,2.973,3.542,6.895Zm0,8.661c0,7.982-8.4,6.785-8.4,1.716,0-4.709,5.039-5.657,8.4-5.767Zm13.57,16.313c-.768,1-6.984,6.685-17.411,6.685S3.205,39.816.761,36.872c-.678-.768.1-1.127.549-.828,7.314,4.44,18.738,11.754,37.167,3.023C39.224,38.7,39.8,39.267,39.025,40.265Zm3.971.22a8.316,8.316,0,0,1-2.115,3.093c-.549.449-.948.269-.649-.379s1.926-4.64,1.267-5.488c-.649-.828-3.692-.429-4.789-.319-1.078.1-1.3.2-1.4-.03-.229-.569,2.165-1.547,3.742-1.746,1.566-.18,4.091-.08,4.59.569C44.014,36.693,43.644,38.888,43,40.484Z" transform="translate(-0.494 -2.25)" fill="#fa9723"/>
</svg>
