<svg xmlns="http://www.w3.org/2000/svg" width="55.947" height="55.948" viewBox="0 0 55.947 55.948">
  <path id="Icon_awesome-bootstrap" data-name="Icon awesome-bootstrap" d="M36.5,37.208c0,5.3-4.96,5.174-5.485,5.174h-10.1v-10.2h10.1c5.315,0,5.485,3.984,5.485,5.028ZM30.24,28.076c.084,0,4.8.125,4.8-4.534,0-1.938-.438-4.48-4.8-4.48H20.917v9.014Zm25.707-16.5v37.3A9.352,9.352,0,0,1,46.622,58.2H9.325A9.352,9.352,0,0,1,0,48.872v-37.3A9.352,9.352,0,0,1,9.325,2.25h37.3a9.352,9.352,0,0,1,9.325,9.325ZM42.217,37.949c0-2.694-.83-7.279-6.125-8.411v-.091A7.155,7.155,0,0,0,40.754,22.5c0-.874.25-8.09-9.691-8.09H15.2V47.044c16.014,0,17.467.21,20.431-.713,1.775-.552,6.583-2.245,6.583-8.382Z" transform="translate(0 -2.25)" fill="#6612ad"/>
</svg>
