<svg xmlns="http://www.w3.org/2000/svg" width="47.141" height="63.941" viewBox="0 0 47.141 63.941">
  <path id="Icon_awesome-java" data-name="Icon awesome-java" d="M34.524,39.076a20.188,20.188,0,0,1,2.922-1.561s-4.833.874-9.641,1.274a87.828,87.828,0,0,1-15.373.162c-7.505-1,4.121-3.759,4.121-3.759A22.118,22.118,0,0,0,6.487,37.565C-.069,40.737,22.722,42.185,34.524,39.076ZM23.859,35.067c-2.373-5.332-10.378-10.016,0-18.208C36.8,6.644,30.165,0,30.165,0c2.685,10.553-9.441,13.75-13.825,20.306C13.356,24.789,17.8,29.6,23.859,35.067Zm14.312-22c.012,0-21.879,5.47-11.427,17.509,3.085,3.547-.812,6.744-.812,6.744s7.83-4.046,4.234-9.1c-3.359-4.721-5.932-7.068,8-15.148Zm-.762,33.781a1.523,1.523,0,0,1-.25.325C53.181,42.96,47.287,32.32,39.631,35.017a2.164,2.164,0,0,0-1.024.787,8.8,8.8,0,0,1,1.374-.375c3.871-.812,9.429,5.183-2.573,11.414Zm5.889,7.78s1.811,1.486-1.986,2.648c-7.231,2.185-30.072,2.847-36.416.087-2.285-.987,2-2.373,3.347-2.66a9.06,9.06,0,0,1,2.21-.25c-2.535-1.786-16.4,3.509-7.043,5.02C28.916,63.615,49.917,57.608,43.3,54.624Zm-27.919-5.17c-9.828,2.747,5.982,8.417,18.5,3.06a23.215,23.215,0,0,1-3.522-1.723,36.547,36.547,0,0,1-13.238.562c-4.184-.475-1.736-1.9-1.736-1.9ZM37.833,61.592a94.658,94.658,0,0,1-29.135.45c0-.012,1.474,1.211,9.042,1.7,11.514.737,29.2-.412,29.61-5.857,0,0-.8,2.061-9.516,3.709ZM32.388,44.084a51.589,51.589,0,0,1-17.084.824c-4.184-.437-1.449-2.46-1.449-2.46-10.84,3.6,6.019,7.668,21.168,3.234a7.539,7.539,0,0,1-2.635-1.6Z" transform="translate(-0.208)"/>
</svg>
