<svg xmlns="http://www.w3.org/2000/svg" width="55.947" height="43.959" viewBox="0 0 55.947 43.959">
  <g id="Icon_ionic-logo-javascript" data-name="Icon ionic-logo-javascript" transform="translate(0)">
    <path id="Trazado_31" data-name="Trazado 31" d="M-2.771,2.813h-9.991V29.35c0,6.566-2.252,8.4-6.171,8.4a14.928,14.928,0,0,1-4.777-.757l-1.041,7.769a23.687,23.687,0,0,0,6.857,1.011c9,0,15.122-4.23,15.122-16.357V2.813Z" transform="translate(24.75 -1.813)" fill="#ebdb12"/>
    <path id="Trazado_32" data-name="Trazado 32" d="M6.793,2.25C-2.878,2.25-9,7.745-9,15.007c0,6.255,4.714,10.17,11.569,12.7,4.958,1.768,6.918,3.348,6.918,5.937,0,2.842-2.265,4.674-6.55,4.674A21.661,21.661,0,0,1-7.1,35.66v0l-1.9,7.9A24.765,24.765,0,0,0,2.385,46.206c11.325,0,16.589-6.063,16.589-13.2,0-6.063-3.367-9.978-10.65-12.758C2.937,18.1.672,16.9.672,14.186c0-2.148,1.959-4.1,6-4.1a17.277,17.277,0,0,1,8.305,2.159l2.388-7.992a25.726,25.726,0,0,0-10.573-2Z" transform="translate(36.974 -2.25)" fill="#ebdb12"/>
  </g>
</svg>
