<svg xmlns="http://www.w3.org/2000/svg" width="93.265" height="63.331" viewBox="0 0 93.265 63.331">
  <path id="Icon_simple-mysql" data-name="Icon simple-mysql" d="M63.75,12.451a4.288,4.288,0,0,0-1.065.128v.051h.054a8.767,8.767,0,0,0,.832,1.061c.21.416.389.832.6,1.244l.054-.058a1.445,1.445,0,0,0,.544-1.294c-.155-.183-.179-.365-.311-.544-.155-.26-.49-.389-.7-.595ZM22.422,63.723h-3.6c-.117-6.07-.478-11.775-1.049-17.137H17.74L12.26,63.723H9.521L4.08,46.586H4.041q-.6,7.712-.758,17.137H0q.321-11.46,1.593-21.49H6.062L11.25,58.026h.031l5.234-15.793h4.255q1.411,11.746,1.663,21.49Zm15.61-15.855q-2.2,11.92-5.8,17.332-2.81,4.174-6.152,4.17a6.066,6.066,0,0,1-2.2-.536v-1.92a9.971,9.971,0,0,0,1.5.1,3.623,3.623,0,0,0,2.514-.863A3.131,3.131,0,0,0,29.044,63.8a15.588,15.588,0,0,0-.894-3.668L24.21,47.868h3.536l2.825,9.171a12.313,12.313,0,0,1,.8,4.364,59.284,59.284,0,0,0,3.245-13.535h3.42Zm47.9,15.855H75.708V42.233h3.439V61.081h6.781Zm-12.9.525L69.078,62.3a8.347,8.347,0,0,0,.991-.972q2.524-2.95,2.518-8.755,0-10.667-8.374-10.671A7.968,7.968,0,0,0,57.8,44.616q-2.506,2.961-2.51,8.724,0,5.666,2.231,8.316,2.04,2.39,6.152,2.39a9.88,9.88,0,0,0,2.817-.381l5.149,3,1.4-2.417ZM60.234,59.421c-.874-1.4-1.31-3.653-1.31-6.746q0-8.12,4.935-8.122a4.152,4.152,0,0,1,3.8,1.943q1.306,2.11,1.306,6.7,0,8.184-4.935,8.192a4.154,4.154,0,0,1-3.8-1.943ZM53.791,57.77a5.693,5.693,0,0,1-2.005,4.492,7.879,7.879,0,0,1-5.378,1.749,10.778,10.778,0,0,1-6.113-2l.921-1.85a10.426,10.426,0,0,0,4.624,1.275,4.857,4.857,0,0,0,3.043-.855,2.928,2.928,0,0,0,1.166-2.39c0-1.282-.894-2.37-2.518-3.284-1.508-.828-4.519-2.553-4.519-2.553a5.143,5.143,0,0,1-2.456-4.574,5.334,5.334,0,0,1,1.826-4.216,6.884,6.884,0,0,1,4.741-1.613,9.755,9.755,0,0,1,5.44,1.593l-.828,1.85A10.594,10.594,0,0,0,47.6,44.5a3.659,3.659,0,0,0-2.541.8,2.661,2.661,0,0,0-.964,2.036c0,1.275.909,2.37,2.588,3.3,1.527.835,4.613,2.6,4.613,2.6a5.059,5.059,0,0,1,2.518,4.539ZM90.249,35.029a11.915,11.915,0,0,0-5.04.731c-.389.155-1.01.155-1.065.649.214.206.245.544.427.832a5.962,5.962,0,0,0,1.345,1.582c.544.427,1.088.839,1.659,1.2,1.01.622,2.157.991,3.148,1.617.563.365,1.139.828,1.71,1.216.284.194.466.544.832.668V43.45c-.179-.233-.233-.571-.408-.832-.26-.26-.521-.494-.777-.75a12.525,12.525,0,0,0-2.7-2.623c-.832-.567-2.65-1.36-2.992-2.312l-.051-.054a10.457,10.457,0,0,0,1.788-.412c.882-.233,1.69-.183,2.6-.412.412-.1.828-.233,1.244-.365v-.233c-.466-.466-.816-1.1-1.3-1.535a34.46,34.46,0,0,0-4.29-3.2c-.816-.521-1.85-.855-2.709-1.3-.311-.155-.832-.233-1.01-.494a10.02,10.02,0,0,1-1.069-2c-.746-1.43-1.477-3.012-2.126-4.519a26.909,26.909,0,0,0-1.321-2.965A26.182,26.182,0,0,0,68.1,9.734,12.655,12.655,0,0,0,64.772,8.67c-.649-.031-1.3-.078-1.943-.1a9.429,9.429,0,0,1-1.2-.913c-1.477-.933-5.3-2.953-6.389-.28-.7,1.687,1.038,3.35,1.64,4.2A11.98,11.98,0,0,1,58.2,13.519c.183.451.233.913.416,1.383a31.1,31.1,0,0,0,1.348,3.486,11.918,11.918,0,0,0,.96,1.6c.21.284.567.416.649.882a7.564,7.564,0,0,0-.6,1.943,11.511,11.511,0,0,0,.754,8.744c.416.645,1.407,2.075,2.732,1.527,1.166-.466.909-1.943,1.244-3.245.078-.311.027-.517.187-.727v.058c.365.731.731,1.426,1.065,2.157a14.622,14.622,0,0,0,3.369,3.478c.622.466,1.115,1.275,1.892,1.562V36.3h-.058a3.468,3.468,0,0,0-.6-.517,13.387,13.387,0,0,1-1.36-1.554,34.042,34.042,0,0,1-2.9-4.733c-.427-.816-.785-1.694-1.127-2.5-.155-.311-.155-.777-.416-.933a9.59,9.59,0,0,0-1.244,1.76,14.846,14.846,0,0,0-.731,3.925c-.1.027-.054,0-.1.054-.832-.2-1.115-1.065-1.426-1.788a11.279,11.279,0,0,1-.233-6.937c.183-.544.96-2.262.649-2.782-.163-.494-.676-.777-.96-1.177a9.629,9.629,0,0,1-.933-1.659c-.622-1.453-.933-3.062-1.609-4.516a13.46,13.46,0,0,0-1.3-1.994,13.076,13.076,0,0,1-1.43-2.021c-.128-.284-.311-.754-.1-1.065a.443.443,0,0,1,.365-.35c.342-.28,1.3.085,1.64.241a13.29,13.29,0,0,1,2.573,1.3c.365.256.758.75,1.224.878h.544c.832.183,1.768.054,2.545.284A16.628,16.628,0,0,1,68.958,12a23.134,23.134,0,0,1,8.1,8.883c.311.6.447,1.146.731,1.768.544,1.282,1.216,2.576,1.768,3.816a16.921,16.921,0,0,0,1.85,3.486c.389.544,1.951.828,2.65,1.111a18.88,18.88,0,0,1,1.788.731c.894.544,1.764,1.166,2.6,1.764.427.3,1.722.944,1.8,1.469Z" transform="translate(0 -6.039)" fill="#0867d6"/>
</svg>
